<svg width="359" height="538" viewBox="0 0 359 538" fill="none" xmlns="http://www.w3.org/2000/svg">
<path d="M0 40C0 17.9086 17.9086 0 40 0H319C341.091 0 359 17.9086 359 40V498C359 520.091 341.091 538 319 538H40C17.9086 538 0 520.091 0 498V40Z" fill="#5099FF"/>
<path d="M0 40C0 17.9086 17.9086 0 40 0H319C341.091 0 359 17.9086 359 40V498C359 520.091 341.091 538 319 538H40C17.9086 538 0 520.091 0 498V40Z" fill="black" fill-opacity="0.2"/>
<path fill-rule="evenodd" clip-rule="evenodd" d="M0.5 93C51.5863 93 93 51.5863 93 0.5C93 0.33323 92.9996 0.166563 92.9987 0H40C17.9086 0 0 17.9086 0 40L0 92.9987C0.166563 92.9996 0.33323 93 0.5 93Z" fill="#003C90"/>
<path fill-rule="evenodd" clip-rule="evenodd" d="M358.5 445C307.414 445 266 486.414 266 537.5C266 537.667 266 537.833 266.001 538H319C341.091 538 359 520.091 359 498V445.001C358.833 445 358.667 445 358.5 445Z" fill="#F2B10B"/>
<path fill-rule="evenodd" clip-rule="evenodd" d="M93 537.5C93 486.414 51.5863 445 0.5 445C0.33323 445 0.166563 445 0 445.001L0 498C0 520.091 17.9086 538 40 538H92.9987C92.9996 537.833 93 537.667 93 537.5Z" fill="#005524"/>
<path fill-rule="evenodd" clip-rule="evenodd" d="M266 0.5C266 51.5863 307.414 93 358.5 93C358.667 93 358.833 92.9996 359 92.9987V40C359 17.9086 341.091 0 319 0L266.001 0C266 0.166563 266 0.33323 266 0.5Z" fill="#CE0B21"/>
<path d="M86.168 305V237.8H122.168C126.008 237.8 129.528 238.728 132.728 240.584C135.992 242.376 138.584 244.84 140.504 247.976C142.424 251.112 143.384 254.6 143.384 258.44C143.384 262.408 142.328 266.024 140.216 269.288C138.168 272.552 135.448 275.144 132.056 277.064C128.664 278.984 124.888 279.944 120.728 279.944H96.536V305H86.168ZM96.536 269.96H120.056C122.296 269.96 124.344 269.448 126.2 268.424C128.12 267.336 129.624 265.928 130.712 264.2C131.864 262.408 132.44 260.488 132.44 258.44C132.44 256.456 131.864 254.664 130.712 253.064C129.624 251.464 128.12 250.184 126.2 249.224C124.344 248.264 122.296 247.784 120.056 247.784H96.536V269.96ZM181.233 300.296V245.768L184.977 246.632L169.425 255.08L165.969 246.44L183.537 236.84H191.697V300.296H181.233ZM167.793 305V295.016H203.313V305H167.793ZM250.179 305.96C244.035 305.96 238.819 304.488 234.531 301.544C230.243 298.6 226.979 294.536 224.739 289.352C222.499 284.168 221.379 278.184 221.379 271.4C221.379 264.616 222.499 258.632 224.739 253.448C226.979 248.264 230.243 244.2 234.531 241.256C238.819 238.312 244.035 236.84 250.179 236.84C256.195 236.84 261.315 238.312 265.539 241.256C269.763 244.2 272.963 248.264 275.139 253.448C277.315 258.632 278.403 264.616 278.403 271.4C278.403 278.184 277.315 284.168 275.139 289.352C272.963 294.536 269.763 298.6 265.539 301.544C261.315 304.488 256.195 305.96 250.179 305.96ZM250.179 296.552C255.939 296.552 260.387 294.376 263.523 290.024C266.723 285.608 268.323 279.4 268.323 271.4C268.323 263.4 266.723 257.224 263.523 252.872C260.387 248.456 255.939 246.248 250.179 246.248C244.291 246.248 239.683 248.456 236.355 252.872C233.027 257.224 231.363 263.4 231.363 271.4C231.363 279.4 233.027 285.608 236.355 290.024C239.683 294.376 244.291 296.552 250.179 296.552Z" fill="black"/>
</svg>
