<svg width="359" height="538" viewBox="0 0 359 538" fill="none" xmlns="http://www.w3.org/2000/svg">
<path d="M0 40C0 17.9086 17.9086 0 40 0H319C341.091 0 359 17.9086 359 40V498C359 520.091 341.091 538 319 538H40C17.9086 538 0 520.091 0 498V40Z" fill="white"/>
<path fill-rule="evenodd" clip-rule="evenodd" d="M0.5 93C51.5863 93 93 51.5863 93 0.5C93 0.33323 92.9996 0.166563 92.9987 0H40C17.9086 0 0 17.9086 0 40V92.9987C0.166563 92.9996 0.33323 93 0.5 93Z" fill="#005524"/>
<path fill-rule="evenodd" clip-rule="evenodd" d="M358.5 445C307.414 445 266 486.414 266 537.5C266 537.667 266 537.833 266.001 538H319C341.091 538 359 520.091 359 498V445.001C358.833 445 358.667 445 358.5 445Z" fill="#005524"/>
<path fill-rule="evenodd" clip-rule="evenodd" d="M93 537.5C93 486.414 51.5863 445 0.5 445C0.33323 445 0.166563 445 0 445.001L0 498C0 520.091 17.9086 538 40 538H92.9987C92.9996 537.833 93 537.667 93 537.5Z" fill="#005524"/>
<path fill-rule="evenodd" clip-rule="evenodd" d="M266 0.5C266 51.5863 307.414 93 358.5 93C358.667 93 358.833 92.9996 359 92.9987V40C359 17.9086 341.091 0 319 0L266.001 0C266 0.166563 266 0.33323 266 0.5Z" fill="#005524"/>
<path d="M143.264 300.296V245.768L147.008 246.632L131.456 255.08L128 246.44L145.568 236.84H153.728V300.296H143.264ZM129.824 305V295.016H165.344V305H129.824ZM188.21 305L185.042 297.128L207.506 276.2C209.17 274.536 210.866 272.872 212.594 271.208C214.386 269.48 215.986 267.784 217.394 266.12C218.866 264.392 220.05 262.696 220.946 261.032C221.842 259.304 222.29 257.672 222.29 256.136C222.29 254.088 221.842 252.36 220.946 250.952C220.05 249.48 218.706 248.36 216.914 247.592C215.186 246.824 213.042 246.44 210.482 246.44C208.178 246.44 205.874 246.888 203.57 247.784C201.33 248.68 199.186 250.056 197.138 251.912C195.154 253.768 193.394 256.136 191.858 259.016L184.178 253.736C185.97 250.344 188.178 247.4 190.802 244.904C193.426 242.344 196.498 240.36 200.018 238.952C203.538 237.544 207.442 236.84 211.73 236.84C216.082 236.84 219.826 237.64 222.962 239.24C226.162 240.776 228.626 242.92 230.354 245.672C232.082 248.36 232.946 251.464 232.946 254.984C232.946 257.096 232.562 259.176 231.794 261.224C231.09 263.208 230.098 265.16 228.818 267.08C227.538 269 226.066 270.856 224.402 272.648C222.738 274.44 220.978 276.232 219.122 278.024C217.33 279.816 215.538 281.576 213.746 283.304L197.426 298.856L195.794 295.016H235.058V305H188.21Z" fill="black"/>
<path d="M27.36 51.04V28.32L28.92 28.68L22.44 32.2L21 28.6L28.32 24.6H31.72V51.04H27.36ZM21.76 53V48.84H36.56V53H21.76ZM46.0875 53L44.7675 49.72L54.1275 41C54.8208 40.3067 55.5275 39.6133 56.2475 38.92C56.9942 38.2 57.6608 37.4933 58.2475 36.8C58.8608 36.08 59.3542 35.3733 59.7275 34.68C60.1008 33.96 60.2875 33.28 60.2875 32.64C60.2875 31.7867 60.1008 31.0667 59.7275 30.48C59.3542 29.8667 58.7942 29.4 58.0475 29.08C57.3275 28.76 56.4342 28.6 55.3675 28.6C54.4075 28.6 53.4475 28.7867 52.4875 29.16C51.5542 29.5333 50.6608 30.1067 49.8075 30.88C48.9808 31.6533 48.2475 32.64 47.6075 33.84L44.4075 31.64C45.1542 30.2267 46.0742 29 47.1675 27.96C48.2608 26.8933 49.5408 26.0667 51.0075 25.48C52.4742 24.8933 54.1008 24.6 55.8875 24.6C57.7008 24.6 59.2608 24.9333 60.5675 25.6C61.9008 26.24 62.9275 27.1333 63.6475 28.28C64.3675 29.4 64.7275 30.6933 64.7275 32.16C64.7275 33.04 64.5675 33.9067 64.2475 34.76C63.9542 35.5867 63.5408 36.4 63.0075 37.2C62.4742 38 61.8608 38.7733 61.1675 39.52C60.4742 40.2667 59.7408 41.0133 58.9675 41.76C58.2208 42.5067 57.4742 43.24 56.7275 43.96L49.9275 50.44L49.2475 48.84H65.6075V53H46.0875Z" fill="black"/>
<path d="M305.36 505.04V482.32L306.92 482.68L300.44 486.2L299 482.6L306.32 478.6H309.72V505.04H305.36ZM299.76 507V502.84H314.56V507H299.76ZM324.088 507L322.768 503.72L332.128 495C332.821 494.307 333.528 493.613 334.248 492.92C334.994 492.2 335.661 491.493 336.248 490.8C336.861 490.08 337.354 489.373 337.728 488.68C338.101 487.96 338.288 487.28 338.288 486.64C338.288 485.787 338.101 485.067 337.728 484.48C337.354 483.867 336.794 483.4 336.048 483.08C335.328 482.76 334.434 482.6 333.368 482.6C332.408 482.6 331.448 482.787 330.488 483.16C329.554 483.533 328.661 484.107 327.808 484.88C326.981 485.653 326.248 486.64 325.608 487.84L322.408 485.64C323.154 484.227 324.074 483 325.168 481.96C326.261 480.893 327.541 480.067 329.008 479.48C330.474 478.893 332.101 478.6 333.888 478.6C335.701 478.6 337.261 478.933 338.568 479.6C339.901 480.24 340.928 481.133 341.648 482.28C342.368 483.4 342.728 484.693 342.728 486.16C342.728 487.04 342.568 487.907 342.248 488.76C341.954 489.587 341.541 490.4 341.008 491.2C340.474 492 339.861 492.773 339.168 493.52C338.474 494.267 337.741 495.013 336.968 495.76C336.221 496.507 335.474 497.24 334.728 497.96L327.928 504.44L327.248 502.84H343.608V507H324.088Z" fill="black"/>
<path d="M27.36 505.04V482.32L28.92 482.68L22.44 486.2L21 482.6L28.32 478.6H31.72V505.04H27.36ZM21.76 507V502.84H36.56V507H21.76ZM46.0875 507L44.7675 503.72L54.1275 495C54.8208 494.307 55.5275 493.613 56.2475 492.92C56.9942 492.2 57.6608 491.493 58.2475 490.8C58.8608 490.08 59.3542 489.373 59.7275 488.68C60.1008 487.96 60.2875 487.28 60.2875 486.64C60.2875 485.787 60.1008 485.067 59.7275 484.48C59.3542 483.867 58.7942 483.4 58.0475 483.08C57.3275 482.76 56.4342 482.6 55.3675 482.6C54.4075 482.6 53.4475 482.787 52.4875 483.16C51.5542 483.533 50.6608 484.107 49.8075 484.88C48.9808 485.653 48.2475 486.64 47.6075 487.84L44.4075 485.64C45.1542 484.227 46.0742 483 47.1675 481.96C48.2608 480.893 49.5408 480.067 51.0075 479.48C52.4742 478.893 54.1008 478.6 55.8875 478.6C57.7008 478.6 59.2608 478.933 60.5675 479.6C61.9008 480.24 62.9275 481.133 63.6475 482.28C64.3675 483.4 64.7275 484.693 64.7275 486.16C64.7275 487.04 64.5675 487.907 64.2475 488.76C63.9542 489.587 63.5408 490.4 63.0075 491.2C62.4742 492 61.8608 492.773 61.1675 493.52C60.4742 494.267 59.7408 495.013 58.9675 495.76C58.2208 496.507 57.4742 497.24 56.7275 497.96L49.9275 504.44L49.2475 502.84H65.6075V507H46.0875Z" fill="black"/>
<path d="M305.36 51.04V28.32L306.92 28.68L300.44 32.2L299 28.6L306.32 24.6H309.72V51.04H305.36ZM299.76 53V48.84H314.56V53H299.76ZM324.088 53L322.768 49.72L332.128 41C332.821 40.3067 333.528 39.6133 334.248 38.92C334.994 38.2 335.661 37.4933 336.248 36.8C336.861 36.08 337.354 35.3733 337.728 34.68C338.101 33.96 338.288 33.28 338.288 32.64C338.288 31.7867 338.101 31.0667 337.728 30.48C337.354 29.8667 336.794 29.4 336.048 29.08C335.328 28.76 334.434 28.6 333.368 28.6C332.408 28.6 331.448 28.7867 330.488 29.16C329.554 29.5333 328.661 30.1067 327.808 30.88C326.981 31.6533 326.248 32.64 325.608 33.84L322.408 31.64C323.154 30.2267 324.074 29 325.168 27.96C326.261 26.8933 327.541 26.0667 329.008 25.48C330.474 24.8933 332.101 24.6 333.888 24.6C335.701 24.6 337.261 24.9333 338.568 25.6C339.901 26.24 340.928 27.1333 341.648 28.28C342.368 29.4 342.728 30.6933 342.728 32.16C342.728 33.04 342.568 33.9067 342.248 34.76C341.954 35.5867 341.541 36.4 341.008 37.2C340.474 38 339.861 38.7733 339.168 39.52C338.474 40.2667 337.741 41.0133 336.968 41.76C336.221 42.5067 335.474 43.24 334.728 43.96L327.928 50.44L327.248 48.84H343.608V53H324.088Z" fill="black"/>
</svg>
