<svg width="359" height="538" viewBox="0 0 359 538" fill="none" xmlns="http://www.w3.org/2000/svg">
<path d="M0 40C0 17.9086 17.9086 0 40 0H319C341.091 0 359 17.9086 359 40V498C359 520.091 341.091 538 319 538H40C17.9086 538 0 520.091 0 498V40Z" fill="white"/>
<path fill-rule="evenodd" clip-rule="evenodd" d="M0.5 93C51.5863 93 93 51.5863 93 0.5C93 0.33323 92.9996 0.166563 92.9987 0H40C17.9086 0 0 17.9086 0 40V92.9987C0.166563 92.9996 0.33323 93 0.5 93Z" fill="#005524"/>
<path fill-rule="evenodd" clip-rule="evenodd" d="M358.5 445C307.414 445 266 486.414 266 537.5C266 537.667 266 537.833 266.001 538H319C341.091 538 359 520.091 359 498V445.001C358.833 445 358.667 445 358.5 445Z" fill="#005524"/>
<path fill-rule="evenodd" clip-rule="evenodd" d="M93 537.5C93 486.414 51.5863 445 0.5 445C0.33323 445 0.166563 445 0 445.001L0 498C0 520.091 17.9086 538 40 538H92.9987C92.9996 537.833 93 537.667 93 537.5Z" fill="#005524"/>
<path fill-rule="evenodd" clip-rule="evenodd" d="M266 0.5C266 51.5863 307.414 93 358.5 93C358.667 93 358.833 92.9996 359 92.9987V40C359 17.9086 341.091 0 319 0L266.001 0C266 0.166563 266 0.33323 266 0.5Z" fill="#005524"/>
<path d="M166.664 305L194.504 244.328L195.656 247.4H156.872V237.8H203.24L204.584 244.424L177.8 305H166.664Z" fill="black"/>
<path d="M36.36 53L47.96 27.72L48.44 29H32.28V25H51.6L52.16 27.76L41 53H36.36Z" fill="black"/>
<path d="M314.36 507L325.96 481.72L326.44 483H310.28V479H329.6L330.16 481.76L319 507H314.36Z" fill="black"/>
<path d="M36.36 507L47.96 481.72L48.44 483H32.28V479H51.6L52.16 481.76L41 507H36.36Z" fill="black"/>
<path d="M314.36 53L325.96 27.72L326.44 29H310.28V25H329.6L330.16 27.76L319 53H314.36Z" fill="black"/>
</svg>
