<svg width="359" height="538" viewBox="0 0 359 538" fill="none" xmlns="http://www.w3.org/2000/svg">
<path d="M0 40C0 17.9086 17.9086 0 40 0H319C341.091 0 359 17.9086 359 40V498C359 520.091 341.091 538 319 538H40C17.9086 538 0 520.091 0 498V40Z" fill="white"/>
<path fill-rule="evenodd" clip-rule="evenodd" d="M0.5 93C51.5863 93 93 51.5863 93 0.5C93 0.33323 92.9996 0.166563 92.9987 0H40C17.9086 0 0 17.9086 0 40V92.9987C0.166563 92.9996 0.33323 93 0.5 93Z" fill="#005524"/>
<path fill-rule="evenodd" clip-rule="evenodd" d="M358.5 445C307.414 445 266 486.414 266 537.5C266 537.667 266 537.833 266.001 538H319C341.091 538 359 520.091 359 498V445.001C358.833 445 358.667 445 358.5 445Z" fill="#005524"/>
<path fill-rule="evenodd" clip-rule="evenodd" d="M93 537.5C93 486.414 51.5863 445 0.5 445C0.33323 445 0.166563 445 0 445.001L0 498C0 520.091 17.9086 538 40 538H92.9987C92.9996 537.833 93 537.667 93 537.5Z" fill="#005524"/>
<path fill-rule="evenodd" clip-rule="evenodd" d="M266 0.5C266 51.5863 307.414 93 358.5 93C358.667 93 358.833 92.9996 359 92.9987V40C359 17.9086 341.091 0 319 0L266.001 0C266 0.166563 266 0.33323 266 0.5Z" fill="#005524"/>
<path d="M177.224 305L176.84 304.04L201.416 261.608L201.128 268.904C199.656 270.696 198.12 272.392 196.52 273.992C194.92 275.528 193.224 276.872 191.432 278.024C189.64 279.176 187.72 280.072 185.672 280.712C183.688 281.352 181.544 281.672 179.24 281.672C175.208 281.672 171.528 280.712 168.2 278.792C164.872 276.808 162.248 274.216 160.328 271.016C158.408 267.816 157.448 264.36 157.448 260.648C157.448 256.04 158.6 251.944 160.904 248.36C163.272 244.712 166.44 241.864 170.408 239.816C174.376 237.704 178.76 236.648 183.56 236.648C187.016 236.648 190.248 237.224 193.256 238.376C196.328 239.528 199.016 241.128 201.32 243.176C203.688 245.224 205.544 247.624 206.888 250.376C208.232 253.064 208.904 255.976 208.904 259.112C208.904 261.032 208.584 263.112 207.944 265.352C207.304 267.528 206.408 269.864 205.256 272.36C204.168 274.856 202.888 277.448 201.416 280.136C200.008 282.76 198.536 285.48 197 288.296L187.592 305H177.224ZM182.408 271.976C185.672 271.976 188.52 271.4 190.952 270.248C193.384 269.096 195.24 267.56 196.52 265.64C197.864 263.72 198.536 261.672 198.536 259.496C198.536 257.128 197.864 254.952 196.52 252.968C195.24 250.92 193.416 249.32 191.048 248.168C188.68 246.952 185.864 246.344 182.6 246.344C179.912 246.344 177.416 246.888 175.112 247.976C172.872 249 171.048 250.504 169.64 252.488C168.296 254.408 167.624 256.712 167.624 259.4C167.624 261.512 168.264 263.528 169.544 265.448C170.824 267.368 172.552 268.936 174.728 270.152C176.968 271.368 179.528 271.976 182.408 271.976Z" fill="black"/>
<path d="M40.76 53L40.6 52.6L50.84 34.92L50.72 37.96C50.1067 38.7067 49.4667 39.4133 48.8 40.08C48.1333 40.72 47.4267 41.28 46.68 41.76C45.9333 42.24 45.1333 42.6133 44.28 42.88C43.4533 43.1467 42.56 43.28 41.6 43.28C39.92 43.28 38.3867 42.88 37 42.08C35.6133 41.2533 34.52 40.1733 33.72 38.84C32.92 37.5067 32.52 36.0667 32.52 34.52C32.52 32.6 33 30.8933 33.96 29.4C34.9467 27.88 36.2667 26.6933 37.92 25.84C39.5733 24.96 41.4 24.52 43.4 24.52C44.84 24.52 46.1867 24.76 47.44 25.24C48.72 25.72 49.84 26.3867 50.8 27.24C51.7867 28.0933 52.56 29.0933 53.12 30.24C53.68 31.36 53.96 32.5733 53.96 33.88C53.96 34.68 53.8267 35.5467 53.56 36.48C53.2933 37.3867 52.92 38.36 52.44 39.4C51.9867 40.44 51.4533 41.52 50.84 42.64C50.2533 43.7333 49.64 44.8667 49 46.04L45.08 53H40.76ZM42.92 39.24C44.28 39.24 45.4667 39 46.48 38.52C47.4933 38.04 48.2667 37.4 48.8 36.6C49.36 35.8 49.64 34.9467 49.64 34.04C49.64 33.0533 49.36 32.1467 48.8 31.32C48.2667 30.4667 47.5067 29.8 46.52 29.32C45.5333 28.8133 44.36 28.56 43 28.56C41.88 28.56 40.84 28.7867 39.88 29.24C38.9467 29.6667 38.1867 30.2933 37.6 31.12C37.04 31.92 36.76 32.88 36.76 34C36.76 34.88 37.0267 35.72 37.56 36.52C38.0933 37.32 38.8133 37.9733 39.72 38.48C40.6533 38.9867 41.72 39.24 42.92 39.24Z" fill="black"/>
<path d="M318.76 507L318.6 506.6L328.84 488.92L328.72 491.96C328.107 492.707 327.467 493.413 326.8 494.08C326.133 494.72 325.427 495.28 324.68 495.76C323.933 496.24 323.133 496.613 322.28 496.88C321.453 497.147 320.56 497.28 319.6 497.28C317.92 497.28 316.387 496.88 315 496.08C313.613 495.253 312.52 494.173 311.72 492.84C310.92 491.507 310.52 490.067 310.52 488.52C310.52 486.6 311 484.893 311.96 483.4C312.947 481.88 314.267 480.693 315.92 479.84C317.573 478.96 319.4 478.52 321.4 478.52C322.84 478.52 324.187 478.76 325.44 479.24C326.72 479.72 327.84 480.387 328.8 481.24C329.787 482.093 330.56 483.093 331.12 484.24C331.68 485.36 331.96 486.573 331.96 487.88C331.96 488.68 331.827 489.547 331.56 490.48C331.293 491.387 330.92 492.36 330.44 493.4C329.987 494.44 329.453 495.52 328.84 496.64C328.253 497.733 327.64 498.867 327 500.04L323.08 507H318.76ZM320.92 493.24C322.28 493.24 323.467 493 324.48 492.52C325.493 492.04 326.267 491.4 326.8 490.6C327.36 489.8 327.64 488.947 327.64 488.04C327.64 487.053 327.36 486.147 326.8 485.32C326.267 484.467 325.507 483.8 324.52 483.32C323.533 482.813 322.36 482.56 321 482.56C319.88 482.56 318.84 482.787 317.88 483.24C316.947 483.667 316.187 484.293 315.6 485.12C315.04 485.92 314.76 486.88 314.76 488C314.76 488.88 315.027 489.72 315.56 490.52C316.093 491.32 316.813 491.973 317.72 492.48C318.653 492.987 319.72 493.24 320.92 493.24Z" fill="black"/>
<path d="M40.76 507L40.6 506.6L50.84 488.92L50.72 491.96C50.1067 492.707 49.4667 493.413 48.8 494.08C48.1333 494.72 47.4267 495.28 46.68 495.76C45.9333 496.24 45.1333 496.613 44.28 496.88C43.4533 497.147 42.56 497.28 41.6 497.28C39.92 497.28 38.3867 496.88 37 496.08C35.6133 495.253 34.52 494.173 33.72 492.84C32.92 491.507 32.52 490.067 32.52 488.52C32.52 486.6 33 484.893 33.96 483.4C34.9467 481.88 36.2667 480.693 37.92 479.84C39.5733 478.96 41.4 478.52 43.4 478.52C44.84 478.52 46.1867 478.76 47.44 479.24C48.72 479.72 49.84 480.387 50.8 481.24C51.7867 482.093 52.56 483.093 53.12 484.24C53.68 485.36 53.96 486.573 53.96 487.88C53.96 488.68 53.8267 489.547 53.56 490.48C53.2933 491.387 52.92 492.36 52.44 493.4C51.9867 494.44 51.4533 495.52 50.84 496.64C50.2533 497.733 49.64 498.867 49 500.04L45.08 507H40.76ZM42.92 493.24C44.28 493.24 45.4667 493 46.48 492.52C47.4933 492.04 48.2667 491.4 48.8 490.6C49.36 489.8 49.64 488.947 49.64 488.04C49.64 487.053 49.36 486.147 48.8 485.32C48.2667 484.467 47.5067 483.8 46.52 483.32C45.5333 482.813 44.36 482.56 43 482.56C41.88 482.56 40.84 482.787 39.88 483.24C38.9467 483.667 38.1867 484.293 37.6 485.12C37.04 485.92 36.76 486.88 36.76 488C36.76 488.88 37.0267 489.72 37.56 490.52C38.0933 491.32 38.8133 491.973 39.72 492.48C40.6533 492.987 41.72 493.24 42.92 493.24Z" fill="black"/>
<path d="M318.76 53L318.6 52.6L328.84 34.92L328.72 37.96C328.107 38.7067 327.467 39.4133 326.8 40.08C326.133 40.72 325.427 41.28 324.68 41.76C323.933 42.24 323.133 42.6133 322.28 42.88C321.453 43.1467 320.56 43.28 319.6 43.28C317.92 43.28 316.387 42.88 315 42.08C313.613 41.2533 312.52 40.1733 311.72 38.84C310.92 37.5067 310.52 36.0667 310.52 34.52C310.52 32.6 311 30.8933 311.96 29.4C312.947 27.88 314.267 26.6933 315.92 25.84C317.573 24.96 319.4 24.52 321.4 24.52C322.84 24.52 324.187 24.76 325.44 25.24C326.72 25.72 327.84 26.3867 328.8 27.24C329.787 28.0933 330.56 29.0933 331.12 30.24C331.68 31.36 331.96 32.5733 331.96 33.88C331.96 34.68 331.827 35.5467 331.56 36.48C331.293 37.3867 330.92 38.36 330.44 39.4C329.987 40.44 329.453 41.52 328.84 42.64C328.253 43.7333 327.64 44.8667 327 46.04L323.08 53H318.76ZM320.92 39.24C322.28 39.24 323.467 39 324.48 38.52C325.493 38.04 326.267 37.4 326.8 36.6C327.36 35.8 327.64 34.9467 327.64 34.04C327.64 33.0533 327.36 32.1467 326.8 31.32C326.267 30.4667 325.507 29.8 324.52 29.32C323.533 28.8133 322.36 28.56 321 28.56C319.88 28.56 318.84 28.7867 317.88 29.24C316.947 29.6667 316.187 30.2933 315.6 31.12C315.04 31.92 314.76 32.88 314.76 34C314.76 34.88 315.027 35.72 315.56 36.52C316.093 37.32 316.813 37.9733 317.72 38.48C318.653 38.9867 319.72 39.24 320.92 39.24Z" fill="black"/>
</svg>
