<svg width="359" height="538" viewBox="0 0 359 538" fill="none" xmlns="http://www.w3.org/2000/svg">
<path d="M0 40C0 17.9086 17.9086 0 40 0H319C341.091 0 359 17.9086 359 40V498C359 520.091 341.091 538 319 538H40C17.9086 538 0 520.091 0 498V40Z" fill="white"/>
<path fill-rule="evenodd" clip-rule="evenodd" d="M0.5 93C51.5863 93 93 51.5863 93 0.5C93 0.33323 92.9996 0.166563 92.9987 0H40C17.9086 0 0 17.9086 0 40L0 92.9987C0.166563 92.9996 0.33323 93 0.5 93Z" fill="#005524"/>
<path fill-rule="evenodd" clip-rule="evenodd" d="M358.5 445C307.414 445 266 486.414 266 537.5C266 537.667 266 537.833 266.001 538H319C341.091 538 359 520.091 359 498V445.001C358.833 445 358.667 445 358.5 445Z" fill="#005524"/>
<path fill-rule="evenodd" clip-rule="evenodd" d="M93 537.5C93 486.414 51.5863 445 0.5 445C0.33323 445 0.166563 445 0 445.001L0 498C0 520.091 17.9086 538 40 538H92.9987C92.9996 537.833 93 537.667 93 537.5Z" fill="#005524"/>
<path fill-rule="evenodd" clip-rule="evenodd" d="M266 0.5C266 51.5863 307.414 93 358.5 93C358.667 93 358.833 92.9996 359 92.9987V40C359 17.9086 341.091 0 319 0L266.001 0C266 0.166563 266 0.33323 266 0.5Z" fill="#005524"/>
<path d="M183.752 305C180.168 305 176.776 304.424 173.576 303.272C170.44 302.12 167.656 300.488 165.224 298.376C162.856 296.264 161 293.768 159.656 290.888C158.312 288.008 157.64 284.808 157.64 281.288C157.64 278.792 157.992 276.296 158.696 273.8C159.464 271.24 160.488 268.68 161.768 266.12C163.112 263.496 164.68 260.904 166.472 258.344C168.264 255.72 170.216 253.128 172.328 250.568L183.752 236.648H195.368L195.752 237.608L180.392 255.368C178.152 258.056 176.04 260.84 174.056 263.72C172.136 266.6 170.504 269.448 169.16 272.264C167.88 275.08 166.984 277.672 166.472 280.04L161.48 272.264C162.76 270.28 164.232 268.456 165.896 266.792C167.624 265.064 169.544 263.56 171.656 262.28C173.832 260.936 176.168 259.912 178.664 259.208C181.224 258.44 183.944 258.056 186.824 258.056C191.112 258.056 195.016 259.016 198.536 260.936C202.056 262.856 204.872 265.48 206.984 268.808C209.096 272.136 210.152 275.88 210.152 280.04C210.152 284.584 209.064 288.776 206.888 292.616C204.712 296.392 201.64 299.4 197.672 301.64C193.768 303.88 189.128 305 183.752 305ZM183.752 295.4C186.76 295.4 189.512 294.824 192.008 293.672C194.504 292.52 196.488 290.888 197.96 288.776C199.432 286.664 200.168 284.168 200.168 281.288C200.168 279.048 199.464 276.904 198.056 274.856C196.712 272.744 194.792 271.016 192.296 269.672C189.864 268.328 187.08 267.656 183.944 267.656C180.616 267.656 177.736 268.296 175.304 269.576C172.872 270.792 170.984 272.456 169.64 274.568C168.296 276.616 167.624 278.824 167.624 281.192C167.624 283.688 168.264 286.024 169.544 288.2C170.888 290.376 172.744 292.136 175.112 293.48C177.544 294.76 180.424 295.4 183.752 295.4Z" fill="black"/>
<path d="M43.48 53C41.9867 53 40.5733 52.76 39.24 52.28C37.9333 51.8 36.7733 51.12 35.76 50.24C34.7733 49.36 34 48.32 33.44 47.12C32.88 45.92 32.6 44.5867 32.6 43.12C32.6 42.08 32.7467 41.04 33.04 40C33.36 38.9333 33.7867 37.8667 34.32 36.8C34.88 35.7067 35.5333 34.6267 36.28 33.56C37.0267 32.4667 37.84 31.3867 38.72 30.32L43.48 24.52H48.32L48.48 24.92L42.08 32.32C41.1467 33.44 40.2667 34.6 39.44 35.8C38.64 37 37.96 38.1867 37.4 39.36C36.8667 40.5333 36.4933 41.6133 36.28 42.6L34.2 39.36C34.7333 38.5333 35.3467 37.7733 36.04 37.08C36.76 36.36 37.56 35.7333 38.44 35.2C39.3467 34.64 40.32 34.2133 41.36 33.92C42.4267 33.6 43.56 33.44 44.76 33.44C46.5467 33.44 48.1733 33.84 49.64 34.64C51.1067 35.44 52.28 36.5333 53.16 37.92C54.04 39.3067 54.48 40.8667 54.48 42.6C54.48 44.4933 54.0267 46.24 53.12 47.84C52.2133 49.4133 50.9333 50.6667 49.28 51.6C47.6533 52.5333 45.72 53 43.48 53ZM43.48 49C44.7333 49 45.88 48.76 46.92 48.28C47.96 47.8 48.7867 47.12 49.4 46.24C50.0133 45.36 50.32 44.32 50.32 43.12C50.32 42.1867 50.0267 41.2933 49.44 40.44C48.88 39.56 48.08 38.84 47.04 38.28C46.0267 37.72 44.8667 37.44 43.56 37.44C42.1733 37.44 40.9733 37.7067 39.96 38.24C38.9467 38.7467 38.16 39.44 37.6 40.32C37.04 41.1733 36.76 42.0933 36.76 43.08C36.76 44.12 37.0267 45.0933 37.56 46C38.12 46.9067 38.8933 47.64 39.88 48.2C40.8933 48.7333 42.0933 49 43.48 49Z" fill="black"/>
<path d="M321.48 507C319.987 507 318.573 506.76 317.24 506.28C315.933 505.8 314.773 505.12 313.76 504.24C312.773 503.36 312 502.32 311.44 501.12C310.88 499.92 310.6 498.587 310.6 497.12C310.6 496.08 310.747 495.04 311.04 494C311.36 492.933 311.787 491.867 312.32 490.8C312.88 489.707 313.533 488.627 314.28 487.56C315.027 486.467 315.84 485.387 316.72 484.32L321.48 478.52H326.32L326.48 478.92L320.08 486.32C319.147 487.44 318.267 488.6 317.44 489.8C316.64 491 315.96 492.187 315.4 493.36C314.867 494.533 314.493 495.613 314.28 496.6L312.2 493.36C312.733 492.533 313.347 491.773 314.04 491.08C314.76 490.36 315.56 489.733 316.44 489.2C317.347 488.64 318.32 488.213 319.36 487.92C320.427 487.6 321.56 487.44 322.76 487.44C324.547 487.44 326.173 487.84 327.64 488.64C329.107 489.44 330.28 490.533 331.16 491.92C332.04 493.307 332.48 494.867 332.48 496.6C332.48 498.493 332.027 500.24 331.12 501.84C330.213 503.413 328.933 504.667 327.28 505.6C325.653 506.533 323.72 507 321.48 507ZM321.48 503C322.733 503 323.88 502.76 324.92 502.28C325.96 501.8 326.787 501.12 327.4 500.24C328.013 499.36 328.32 498.32 328.32 497.12C328.32 496.187 328.027 495.293 327.44 494.44C326.88 493.56 326.08 492.84 325.04 492.28C324.027 491.72 322.867 491.44 321.56 491.44C320.173 491.44 318.973 491.707 317.96 492.24C316.947 492.747 316.16 493.44 315.6 494.32C315.04 495.173 314.76 496.093 314.76 497.08C314.76 498.12 315.027 499.093 315.56 500C316.12 500.907 316.893 501.64 317.88 502.2C318.893 502.733 320.093 503 321.48 503Z" fill="black"/>
<path d="M43.48 507C41.9867 507 40.5733 506.76 39.24 506.28C37.9333 505.8 36.7733 505.12 35.76 504.24C34.7733 503.36 34 502.32 33.44 501.12C32.88 499.92 32.6 498.587 32.6 497.12C32.6 496.08 32.7467 495.04 33.04 494C33.36 492.933 33.7867 491.867 34.32 490.8C34.88 489.707 35.5333 488.627 36.28 487.56C37.0267 486.467 37.84 485.387 38.72 484.32L43.48 478.52H48.32L48.48 478.92L42.08 486.32C41.1467 487.44 40.2667 488.6 39.44 489.8C38.64 491 37.96 492.187 37.4 493.36C36.8667 494.533 36.4933 495.613 36.28 496.6L34.2 493.36C34.7333 492.533 35.3467 491.773 36.04 491.08C36.76 490.36 37.56 489.733 38.44 489.2C39.3467 488.64 40.32 488.213 41.36 487.92C42.4267 487.6 43.56 487.44 44.76 487.44C46.5467 487.44 48.1733 487.84 49.64 488.64C51.1067 489.44 52.28 490.533 53.16 491.92C54.04 493.307 54.48 494.867 54.48 496.6C54.48 498.493 54.0267 500.24 53.12 501.84C52.2133 503.413 50.9333 504.667 49.28 505.6C47.6533 506.533 45.72 507 43.48 507ZM43.48 503C44.7333 503 45.88 502.76 46.92 502.28C47.96 501.8 48.7867 501.12 49.4 500.24C50.0133 499.36 50.32 498.32 50.32 497.12C50.32 496.187 50.0267 495.293 49.44 494.44C48.88 493.56 48.08 492.84 47.04 492.28C46.0267 491.72 44.8667 491.44 43.56 491.44C42.1733 491.44 40.9733 491.707 39.96 492.24C38.9467 492.747 38.16 493.44 37.6 494.32C37.04 495.173 36.76 496.093 36.76 497.08C36.76 498.12 37.0267 499.093 37.56 500C38.12 500.907 38.8933 501.64 39.88 502.2C40.8933 502.733 42.0933 503 43.48 503Z" fill="black"/>
<path d="M321.48 53C319.987 53 318.573 52.76 317.24 52.28C315.933 51.8 314.773 51.12 313.76 50.24C312.773 49.36 312 48.32 311.44 47.12C310.88 45.92 310.6 44.5867 310.6 43.12C310.6 42.08 310.747 41.04 311.04 40C311.36 38.9333 311.787 37.8667 312.32 36.8C312.88 35.7067 313.533 34.6267 314.28 33.56C315.027 32.4667 315.84 31.3867 316.72 30.32L321.48 24.52H326.32L326.48 24.92L320.08 32.32C319.147 33.44 318.267 34.6 317.44 35.8C316.64 37 315.96 38.1867 315.4 39.36C314.867 40.5333 314.493 41.6133 314.28 42.6L312.2 39.36C312.733 38.5333 313.347 37.7733 314.04 37.08C314.76 36.36 315.56 35.7333 316.44 35.2C317.347 34.64 318.32 34.2133 319.36 33.92C320.427 33.6 321.56 33.44 322.76 33.44C324.547 33.44 326.173 33.84 327.64 34.64C329.107 35.44 330.28 36.5333 331.16 37.92C332.04 39.3067 332.48 40.8667 332.48 42.6C332.48 44.4933 332.027 46.24 331.12 47.84C330.213 49.4133 328.933 50.6667 327.28 51.6C325.653 52.5333 323.72 53 321.48 53ZM321.48 49C322.733 49 323.88 48.76 324.92 48.28C325.96 47.8 326.787 47.12 327.4 46.24C328.013 45.36 328.32 44.32 328.32 43.12C328.32 42.1867 328.027 41.2933 327.44 40.44C326.88 39.56 326.08 38.84 325.04 38.28C324.027 37.72 322.867 37.44 321.56 37.44C320.173 37.44 318.973 37.7067 317.96 38.24C316.947 38.7467 316.16 39.44 315.6 40.32C315.04 41.1733 314.76 42.0933 314.76 43.08C314.76 44.12 315.027 45.0933 315.56 46C316.12 46.9067 316.893 47.64 317.88 48.2C318.893 48.7333 320.093 49 321.48 49Z" fill="black"/>
</svg>
