<svg width="359" height="538" viewBox="0 0 359 538" fill="none" xmlns="http://www.w3.org/2000/svg">
<path d="M0 40C0 17.9086 17.9086 0 40 0H319C341.091 0 359 17.9086 359 40V498C359 520.091 341.091 538 319 538H40C17.9086 538 0 520.091 0 498V40Z" fill="white"/>
<path fill-rule="evenodd" clip-rule="evenodd" d="M0.5 93C51.5863 93 93 51.5863 93 0.5C93 0.33323 92.9996 0.166563 92.9987 0H40C17.9086 0 0 17.9086 0 40L0 92.9987C0.166563 92.9996 0.33323 93 0.5 93Z" fill="#CE0B21"/>
<path fill-rule="evenodd" clip-rule="evenodd" d="M358.5 445C307.414 445 266 486.414 266 537.5C266 537.667 266 537.833 266.001 538H319C341.091 538 359 520.091 359 498V445.001C358.833 445 358.667 445 358.5 445Z" fill="#CE0B21"/>
<path fill-rule="evenodd" clip-rule="evenodd" d="M93 537.5C93 486.414 51.5863 445 0.5 445C0.33323 445 0.166563 445 0 445.001L0 498C0 520.091 17.9086 538 40 538H92.9987C92.9996 537.833 93 537.667 93 537.5Z" fill="#CE0B21"/>
<path fill-rule="evenodd" clip-rule="evenodd" d="M266 0.5C266 51.5863 307.414 93 358.5 93C358.667 93 358.833 92.9996 359 92.9987V40C359 17.9086 341.091 0 319 0L266.001 0C266 0.166563 266 0.33323 266 0.5Z" fill="#CE0B21"/>
<path d="M161.96 305L158.792 297.128L181.256 276.2C182.92 274.536 184.616 272.872 186.344 271.208C188.136 269.48 189.736 267.784 191.144 266.12C192.616 264.392 193.8 262.696 194.696 261.032C195.592 259.304 196.04 257.672 196.04 256.136C196.04 254.088 195.592 252.36 194.696 250.952C193.8 249.48 192.456 248.36 190.664 247.592C188.936 246.824 186.792 246.44 184.232 246.44C181.928 246.44 179.624 246.888 177.32 247.784C175.08 248.68 172.936 250.056 170.888 251.912C168.904 253.768 167.144 256.136 165.608 259.016L157.928 253.736C159.72 250.344 161.928 247.4 164.552 244.904C167.176 242.344 170.248 240.36 173.768 238.952C177.288 237.544 181.192 236.84 185.48 236.84C189.832 236.84 193.576 237.64 196.712 239.24C199.912 240.776 202.376 242.92 204.104 245.672C205.832 248.36 206.696 251.464 206.696 254.984C206.696 257.096 206.312 259.176 205.544 261.224C204.84 263.208 203.848 265.16 202.568 267.08C201.288 269 199.816 270.856 198.152 272.648C196.488 274.44 194.728 276.232 192.872 278.024C191.08 279.816 189.288 281.576 187.496 283.304L171.176 298.856L169.544 295.016H208.808V305H161.96Z" fill="black"/>
<path d="M34.4 53L33.08 49.72L42.44 41C43.1333 40.3067 43.84 39.6133 44.56 38.92C45.3067 38.2 45.9733 37.4933 46.56 36.8C47.1733 36.08 47.6667 35.3733 48.04 34.68C48.4133 33.96 48.6 33.28 48.6 32.64C48.6 31.7867 48.4133 31.0667 48.04 30.48C47.6667 29.8667 47.1067 29.4 46.36 29.08C45.64 28.76 44.7467 28.6 43.68 28.6C42.72 28.6 41.76 28.7867 40.8 29.16C39.8667 29.5333 38.9733 30.1067 38.12 30.88C37.2933 31.6533 36.56 32.64 35.92 33.84L32.72 31.64C33.4667 30.2267 34.3867 29 35.48 27.96C36.5733 26.8933 37.8533 26.0667 39.32 25.48C40.7867 24.8933 42.4133 24.6 44.2 24.6C46.0133 24.6 47.5733 24.9333 48.88 25.6C50.2133 26.24 51.24 27.1333 51.96 28.28C52.68 29.4 53.04 30.6933 53.04 32.16C53.04 33.04 52.88 33.9067 52.56 34.76C52.2667 35.5867 51.8533 36.4 51.32 37.2C50.7867 38 50.1733 38.7733 49.48 39.52C48.7867 40.2667 48.0533 41.0133 47.28 41.76C46.5333 42.5067 45.7867 43.24 45.04 43.96L38.24 50.44L37.56 48.84H53.92V53H34.4Z" fill="black"/>
<path d="M312.4 507L311.08 503.72L320.44 495C321.133 494.307 321.84 493.613 322.56 492.92C323.307 492.2 323.973 491.493 324.56 490.8C325.173 490.08 325.667 489.373 326.04 488.68C326.413 487.96 326.6 487.28 326.6 486.64C326.6 485.787 326.413 485.067 326.04 484.48C325.667 483.867 325.107 483.4 324.36 483.08C323.64 482.76 322.747 482.6 321.68 482.6C320.72 482.6 319.76 482.787 318.8 483.16C317.867 483.533 316.973 484.107 316.12 484.88C315.293 485.653 314.56 486.64 313.92 487.84L310.72 485.64C311.467 484.227 312.387 483 313.48 481.96C314.573 480.893 315.853 480.067 317.32 479.48C318.787 478.893 320.413 478.6 322.2 478.6C324.013 478.6 325.573 478.933 326.88 479.6C328.213 480.24 329.24 481.133 329.96 482.28C330.68 483.4 331.04 484.693 331.04 486.16C331.04 487.04 330.88 487.907 330.56 488.76C330.267 489.587 329.853 490.4 329.32 491.2C328.787 492 328.173 492.773 327.48 493.52C326.787 494.267 326.053 495.013 325.28 495.76C324.533 496.507 323.787 497.24 323.04 497.96L316.24 504.44L315.56 502.84H331.92V507H312.4Z" fill="black"/>
<path d="M34.4 507L33.08 503.72L42.44 495C43.1333 494.307 43.84 493.613 44.56 492.92C45.3067 492.2 45.9733 491.493 46.56 490.8C47.1733 490.08 47.6667 489.373 48.04 488.68C48.4133 487.96 48.6 487.28 48.6 486.64C48.6 485.787 48.4133 485.067 48.04 484.48C47.6667 483.867 47.1067 483.4 46.36 483.08C45.64 482.76 44.7467 482.6 43.68 482.6C42.72 482.6 41.76 482.787 40.8 483.16C39.8667 483.533 38.9733 484.107 38.12 484.88C37.2933 485.653 36.56 486.64 35.92 487.84L32.72 485.64C33.4667 484.227 34.3867 483 35.48 481.96C36.5733 480.893 37.8533 480.067 39.32 479.48C40.7867 478.893 42.4133 478.6 44.2 478.6C46.0133 478.6 47.5733 478.933 48.88 479.6C50.2133 480.24 51.24 481.133 51.96 482.28C52.68 483.4 53.04 484.693 53.04 486.16C53.04 487.04 52.88 487.907 52.56 488.76C52.2667 489.587 51.8533 490.4 51.32 491.2C50.7867 492 50.1733 492.773 49.48 493.52C48.7867 494.267 48.0533 495.013 47.28 495.76C46.5333 496.507 45.7867 497.24 45.04 497.96L38.24 504.44L37.56 502.84H53.92V507H34.4Z" fill="black"/>
<path d="M312.4 53L311.08 49.72L320.44 41C321.133 40.3067 321.84 39.6133 322.56 38.92C323.307 38.2 323.973 37.4933 324.56 36.8C325.173 36.08 325.667 35.3733 326.04 34.68C326.413 33.96 326.6 33.28 326.6 32.64C326.6 31.7867 326.413 31.0667 326.04 30.48C325.667 29.8667 325.107 29.4 324.36 29.08C323.64 28.76 322.747 28.6 321.68 28.6C320.72 28.6 319.76 28.7867 318.8 29.16C317.867 29.5333 316.973 30.1067 316.12 30.88C315.293 31.6533 314.56 32.64 313.92 33.84L310.72 31.64C311.467 30.2267 312.387 29 313.48 27.96C314.573 26.8933 315.853 26.0667 317.32 25.48C318.787 24.8933 320.413 24.6 322.2 24.6C324.013 24.6 325.573 24.9333 326.88 25.6C328.213 26.24 329.24 27.1333 329.96 28.28C330.68 29.4 331.04 30.6933 331.04 32.16C331.04 33.04 330.88 33.9067 330.56 34.76C330.267 35.5867 329.853 36.4 329.32 37.2C328.787 38 328.173 38.7733 327.48 39.52C326.787 40.2667 326.053 41.0133 325.28 41.76C324.533 42.5067 323.787 43.24 323.04 43.96L316.24 50.44L315.56 48.84H331.92V53H312.4Z" fill="black"/>
</svg>
