<svg width="359" height="538" viewBox="0 0 359 538" fill="none" xmlns="http://www.w3.org/2000/svg">
<path d="M0 40C0 17.9086 17.9086 0 40 0H319C341.091 0 359 17.9086 359 40V498C359 520.091 341.091 538 319 538H40C17.9086 538 0 520.091 0 498V40Z" fill="white"/>
<path fill-rule="evenodd" clip-rule="evenodd" d="M0.5 93C51.5863 93 93 51.5863 93 0.5C93 0.33323 92.9996 0.166563 92.9987 0H40C17.9086 0 0 17.9086 0 40L0 92.9987C0.166563 92.9996 0.33323 93 0.5 93Z" fill="#CE0B21"/>
<path fill-rule="evenodd" clip-rule="evenodd" d="M358.5 445C307.414 445 266 486.414 266 537.5C266 537.667 266 537.833 266.001 538H319C341.091 538 359 520.091 359 498V445.001C358.833 445 358.667 445 358.5 445Z" fill="#CE0B21"/>
<path fill-rule="evenodd" clip-rule="evenodd" d="M93 537.5C93 486.414 51.5863 445 0.5 445C0.33323 445 0.166563 445 0 445.001L0 498C0 520.091 17.9086 538 40 538H92.9987C92.9996 537.833 93 537.667 93 537.5Z" fill="#CE0B21"/>
<path fill-rule="evenodd" clip-rule="evenodd" d="M266 0.5C266 51.5863 307.414 93 358.5 93C358.667 93 358.833 92.9996 359 92.9987V40C359 17.9086 341.091 0 319 0L266.001 0C266 0.166563 266 0.33323 266 0.5Z" fill="#CE0B21"/>
<path d="M181.352 305.672C176.552 305.672 172.104 304.68 168.008 302.696C163.912 300.648 160.456 298.024 157.64 294.824L163.112 287.144C166.12 290.024 169.16 292.264 172.232 293.864C175.304 295.4 178.344 296.168 181.352 296.168C184.552 296.168 187.432 295.624 189.992 294.536C192.552 293.384 194.536 291.784 195.944 289.736C197.416 287.688 198.152 285.256 198.152 282.44C198.152 279.944 197.416 277.736 195.944 275.816C194.536 273.832 192.616 272.264 190.184 271.112C187.752 269.896 185.064 269.288 182.12 269.288C179.816 269.288 177.704 269.512 175.784 269.96C173.864 270.344 172.104 270.856 170.504 271.496C168.904 272.072 167.368 272.68 165.896 273.32L160.424 266.312L164.36 237.8H203.432V247.4H170.888L172.52 245.576L169.352 266.888L167.336 264.104C168.104 263.464 169.384 262.856 171.176 262.28C172.968 261.64 174.984 261.128 177.224 260.744C179.528 260.296 181.768 260.072 183.944 260.072C188.424 260.072 192.488 261 196.136 262.856C199.784 264.712 202.696 267.304 204.872 270.632C207.112 273.896 208.232 277.736 208.232 282.152C208.232 286.568 207.016 290.568 204.584 294.152C202.216 297.672 199.016 300.488 194.984 302.6C190.952 304.648 186.408 305.672 181.352 305.672Z" fill="black"/>
<path d="M42.48 53.28C40.48 53.28 38.6267 52.8667 36.92 52.04C35.2133 51.1867 33.7733 50.0933 32.6 48.76L34.88 45.56C36.1333 46.76 37.4 47.6933 38.68 48.36C39.96 49 41.2267 49.32 42.48 49.32C43.8133 49.32 45.0133 49.0933 46.08 48.64C47.1467 48.16 47.9733 47.4933 48.56 46.64C49.1733 45.7867 49.48 44.7733 49.48 43.6C49.48 42.56 49.1733 41.64 48.56 40.84C47.9733 40.0133 47.1733 39.36 46.16 38.88C45.1467 38.3733 44.0267 38.12 42.8 38.12C41.84 38.12 40.96 38.2133 40.16 38.4C39.36 38.56 38.6267 38.7733 37.96 39.04C37.2933 39.28 36.6533 39.5333 36.04 39.8L33.76 36.88L35.4 25H51.68V29H38.12L38.8 28.24L37.48 37.12L36.64 35.96C36.96 35.6933 37.4933 35.44 38.24 35.2C38.9867 34.9333 39.8267 34.72 40.76 34.56C41.72 34.3733 42.6533 34.28 43.56 34.28C45.4267 34.28 47.12 34.6667 48.64 35.44C50.16 36.2133 51.3733 37.2933 52.28 38.68C53.2133 40.04 53.68 41.64 53.68 43.48C53.68 45.32 53.1733 46.9867 52.16 48.48C51.1733 49.9467 49.84 51.12 48.16 52C46.48 52.8533 44.5867 53.28 42.48 53.28Z" fill="black"/>
<path d="M320.48 507.28C318.48 507.28 316.627 506.867 314.92 506.04C313.213 505.187 311.773 504.093 310.6 502.76L312.88 499.56C314.133 500.76 315.4 501.693 316.68 502.36C317.96 503 319.227 503.32 320.48 503.32C321.813 503.32 323.013 503.093 324.08 502.64C325.147 502.16 325.973 501.493 326.56 500.64C327.173 499.787 327.48 498.773 327.48 497.6C327.48 496.56 327.173 495.64 326.56 494.84C325.973 494.013 325.173 493.36 324.16 492.88C323.147 492.373 322.027 492.12 320.8 492.12C319.84 492.12 318.96 492.213 318.16 492.4C317.36 492.56 316.627 492.773 315.96 493.04C315.293 493.28 314.653 493.533 314.04 493.8L311.76 490.88L313.4 479H329.68V483H316.12L316.8 482.24L315.48 491.12L314.64 489.96C314.96 489.693 315.493 489.44 316.24 489.2C316.987 488.933 317.827 488.72 318.76 488.56C319.72 488.373 320.653 488.28 321.56 488.28C323.427 488.28 325.12 488.667 326.64 489.44C328.16 490.213 329.373 491.293 330.28 492.68C331.213 494.04 331.68 495.64 331.68 497.48C331.68 499.32 331.173 500.987 330.16 502.48C329.173 503.947 327.84 505.12 326.16 506C324.48 506.853 322.587 507.28 320.48 507.28Z" fill="black"/>
<path d="M42.48 507.28C40.48 507.28 38.6267 506.867 36.92 506.04C35.2133 505.187 33.7733 504.093 32.6 502.76L34.88 499.56C36.1333 500.76 37.4 501.693 38.68 502.36C39.96 503 41.2267 503.32 42.48 503.32C43.8133 503.32 45.0133 503.093 46.08 502.64C47.1467 502.16 47.9733 501.493 48.56 500.64C49.1733 499.787 49.48 498.773 49.48 497.6C49.48 496.56 49.1733 495.64 48.56 494.84C47.9733 494.013 47.1733 493.36 46.16 492.88C45.1467 492.373 44.0267 492.12 42.8 492.12C41.84 492.12 40.96 492.213 40.16 492.4C39.36 492.56 38.6267 492.773 37.96 493.04C37.2933 493.28 36.6533 493.533 36.04 493.8L33.76 490.88L35.4 479H51.68V483H38.12L38.8 482.24L37.48 491.12L36.64 489.96C36.96 489.693 37.4933 489.44 38.24 489.2C38.9867 488.933 39.8267 488.72 40.76 488.56C41.72 488.373 42.6533 488.28 43.56 488.28C45.4267 488.28 47.12 488.667 48.64 489.44C50.16 490.213 51.3733 491.293 52.28 492.68C53.2133 494.04 53.68 495.64 53.68 497.48C53.68 499.32 53.1733 500.987 52.16 502.48C51.1733 503.947 49.84 505.12 48.16 506C46.48 506.853 44.5867 507.28 42.48 507.28Z" fill="black"/>
<path d="M320.48 53.28C318.48 53.28 316.627 52.8667 314.92 52.04C313.213 51.1867 311.773 50.0933 310.6 48.76L312.88 45.56C314.133 46.76 315.4 47.6933 316.68 48.36C317.96 49 319.227 49.32 320.48 49.32C321.813 49.32 323.013 49.0933 324.08 48.64C325.147 48.16 325.973 47.4933 326.56 46.64C327.173 45.7867 327.48 44.7733 327.48 43.6C327.48 42.56 327.173 41.64 326.56 40.84C325.973 40.0133 325.173 39.36 324.16 38.88C323.147 38.3733 322.027 38.12 320.8 38.12C319.84 38.12 318.96 38.2133 318.16 38.4C317.36 38.56 316.627 38.7733 315.96 39.04C315.293 39.28 314.653 39.5333 314.04 39.8L311.76 36.88L313.4 25H329.68V29H316.12L316.8 28.24L315.48 37.12L314.64 35.96C314.96 35.6933 315.493 35.44 316.24 35.2C316.987 34.9333 317.827 34.72 318.76 34.56C319.72 34.3733 320.653 34.28 321.56 34.28C323.427 34.28 325.12 34.6667 326.64 35.44C328.16 36.2133 329.373 37.2933 330.28 38.68C331.213 40.04 331.68 41.64 331.68 43.48C331.68 45.32 331.173 46.9867 330.16 48.48C329.173 49.9467 327.84 51.12 326.16 52C324.48 52.8533 322.587 53.28 320.48 53.28Z" fill="black"/>
</svg>
