<svg width="359" height="538" viewBox="0 0 359 538" fill="none" xmlns="http://www.w3.org/2000/svg">
<path d="M0 40C0 17.9086 17.9086 0 40 0H319C341.091 0 359 17.9086 359 40V498C359 520.091 341.091 538 319 538H40C17.9086 538 0 520.091 0 498V40Z" fill="white"/>
<path fill-rule="evenodd" clip-rule="evenodd" d="M0.5 93C51.5863 93 93 51.5863 93 0.5C93 0.33323 92.9996 0.166563 92.9987 0H40C17.9086 0 0 17.9086 0 40V92.9987C0.166563 92.9996 0.33323 93 0.5 93Z" fill="#CE0B21"/>
<path fill-rule="evenodd" clip-rule="evenodd" d="M358.5 445C307.414 445 266 486.414 266 537.5C266 537.667 266 537.833 266.001 538H319C341.091 538 359 520.091 359 498V445.001C358.833 445 358.667 445 358.5 445Z" fill="#CE0B21"/>
<path fill-rule="evenodd" clip-rule="evenodd" d="M93 537.5C93 486.414 51.5863 445 0.5 445C0.33323 445 0.166563 445 0 445.001L0 498C0 520.091 17.9086 538 40 538H92.9987C92.9996 537.833 93 537.667 93 537.5Z" fill="#CE0B21"/>
<path fill-rule="evenodd" clip-rule="evenodd" d="M266 0.5C266 51.5863 307.414 93 358.5 93C358.667 93 358.833 92.9996 359 92.9987V40C359 17.9086 341.091 0 319 0L266.001 0C266 0.166563 266 0.33323 266 0.5Z" fill="#CE0B21"/>
<path d="M147.264 300.296V245.768L151.008 246.632L135.456 255.08L132 246.44L149.568 236.84H157.728V300.296H147.264ZM133.824 305V295.016H169.344V305H133.824ZM206.514 300.296V245.768L210.258 246.632L194.706 255.08L191.25 246.44L208.818 236.84H216.978V300.296H206.514ZM193.074 305V295.016H228.594V305H193.074Z" fill="black"/>
<path d="M27.36 51.04V28.32L28.92 28.68L22.44 32.2L21 28.6L28.32 24.6H31.72V51.04H27.36ZM21.76 53V48.84H36.56V53H21.76ZM52.0475 51.04V28.32L53.6075 28.68L47.1275 32.2L45.6875 28.6L53.0075 24.6H56.4075V51.04H52.0475ZM46.4475 53V48.84H61.2475V53H46.4475Z" fill="black"/>
<path d="M305.36 505.04V482.32L306.92 482.68L300.44 486.2L299 482.6L306.32 478.6H309.72V505.04H305.36ZM299.76 507V502.84H314.56V507H299.76ZM330.048 505.04V482.32L331.608 482.68L325.128 486.2L323.688 482.6L331.008 478.6H334.408V505.04H330.048ZM324.448 507V502.84H339.247V507H324.448Z" fill="black"/>
<path d="M27.36 505.04V482.32L28.92 482.68L22.44 486.2L21 482.6L28.32 478.6H31.72V505.04H27.36ZM21.76 507V502.84H36.56V507H21.76ZM52.0475 505.04V482.32L53.6075 482.68L47.1275 486.2L45.6875 482.6L53.0075 478.6H56.4075V505.04H52.0475ZM46.4475 507V502.84H61.2475V507H46.4475Z" fill="black"/>
<path d="M305.36 51.04V28.32L306.92 28.68L300.44 32.2L299 28.6L306.32 24.6H309.72V51.04H305.36ZM299.76 53V48.84H314.56V53H299.76ZM330.048 51.04V28.32L331.608 28.68L325.128 32.2L323.688 28.6L331.008 24.6H334.408V51.04H330.048ZM324.448 53V48.84H339.247V53H324.448Z" fill="black"/>
</svg>
