<svg width="359" height="538" viewBox="0 0 359 538" fill="none" xmlns="http://www.w3.org/2000/svg">
<path d="M0 40C0 17.9086 17.9086 0 40 0H319C341.091 0 359 17.9086 359 40V498C359 520.091 341.091 538 319 538H40C17.9086 538 0 520.091 0 498V40Z" fill="white"/>
<path fill-rule="evenodd" clip-rule="evenodd" d="M0.5 93C51.5863 93 93 51.5863 93 0.5C93 0.33323 92.9996 0.166563 92.9987 0H40C17.9086 0 0 17.9086 0 40V92.9987C0.166563 92.9996 0.33323 93 0.5 93Z" fill="#003C90"/>
<path fill-rule="evenodd" clip-rule="evenodd" d="M358.5 445C307.414 445 266 486.414 266 537.5C266 537.667 266 537.833 266.001 538H319C341.091 538 359 520.091 359 498V445.001C358.833 445 358.667 445 358.5 445Z" fill="#F2B10B"/>
<path fill-rule="evenodd" clip-rule="evenodd" d="M93 537.5C93 486.414 51.5863 445 0.5 445C0.33323 445 0.166563 445 0 445.001L0 498C0 520.091 17.9086 538 40 538H92.9987C92.9996 537.833 93 537.667 93 537.5Z" fill="#005524"/>
<path fill-rule="evenodd" clip-rule="evenodd" d="M266 0.5C266 51.5863 307.414 93 358.5 93C358.667 93 358.833 92.9996 359 92.9987V40C359 17.9086 341.091 0 319 0L266.001 0C266 0.166563 266 0.33323 266 0.5Z" fill="#CE0B21"/>
<path d="M59.472 305.96C54.992 305.96 50.864 305.48 47.088 304.52C43.312 303.56 39.856 302.12 36.72 300.2C33.584 298.28 30.736 295.848 28.176 292.904L34.896 284.36C38.736 288.712 42.608 291.848 46.512 293.768C50.48 295.688 54.928 296.648 59.856 296.648C62.928 296.648 65.84 296.264 68.592 295.496C71.344 294.664 73.584 293.48 75.312 291.944C77.104 290.408 78 288.488 78 286.184C78 284.712 77.552 283.464 76.656 282.44C75.76 281.416 74.576 280.552 73.104 279.848C71.632 279.144 69.968 278.568 68.112 278.12C66.32 277.672 64.496 277.32 62.64 277.064C60.848 276.744 59.184 276.456 57.648 276.2C53.552 275.624 49.904 274.824 46.704 273.8C43.504 272.712 40.752 271.4 38.448 269.864C36.208 268.264 34.48 266.344 33.264 264.104C32.112 261.864 31.536 259.304 31.536 256.424C31.536 253.416 32.24 250.696 33.648 248.264C35.056 245.832 37.04 243.784 39.6 242.12C42.16 240.392 45.136 239.08 48.528 238.184C51.92 237.288 55.6 236.84 59.568 236.84C63.728 236.84 67.536 237.288 70.992 238.184C74.512 239.08 77.616 240.424 80.304 242.216C83.056 243.944 85.328 246.088 87.12 248.648L80.112 256.136C78.448 253.96 76.528 252.136 74.352 250.664C72.24 249.192 69.904 248.072 67.344 247.304C64.784 246.536 62.096 246.152 59.28 246.152C56.08 246.152 53.232 246.536 50.736 247.304C48.24 248.072 46.256 249.16 44.784 250.568C43.312 251.912 42.576 253.544 42.576 255.464C42.576 257.128 42.992 258.568 43.824 259.784C44.72 260.936 45.968 261.928 47.568 262.76C49.168 263.528 51.12 264.2 53.424 264.776C55.728 265.352 58.352 265.832 61.296 266.216C65.008 266.792 68.528 267.496 71.856 268.328C75.248 269.16 78.224 270.248 80.784 271.592C83.344 272.936 85.36 274.664 86.832 276.776C88.304 278.824 89.04 281.384 89.04 284.456C89.04 288.808 87.824 292.616 85.392 295.88C82.96 299.08 79.536 301.576 75.12 303.368C70.704 305.096 65.488 305.96 59.472 305.96ZM122.319 287.24L122.127 275.528L167.727 237.8H182.607L122.319 287.24ZM114.543 305V237.8H124.911V305H114.543ZM168.207 305L139.791 269.192L146.511 261.416L181.743 305H168.207ZM208.103 305V294.92H223.751V247.88H208.103V237.8H249.863V247.88H234.119V294.92H249.863V305H208.103ZM280.106 305V237.8H316.106C319.946 237.8 323.466 238.728 326.666 240.584C329.93 242.376 332.522 244.84 334.442 247.976C336.362 251.112 337.322 254.6 337.322 258.44C337.322 262.408 336.266 266.024 334.154 269.288C332.106 272.552 329.386 275.144 325.994 277.064C322.602 278.984 318.826 279.944 314.666 279.944H290.474V305H280.106ZM290.474 269.96H313.994C316.234 269.96 318.282 269.448 320.138 268.424C322.058 267.336 323.562 265.928 324.65 264.2C325.802 262.408 326.378 260.488 326.378 258.44C326.378 256.456 325.802 254.664 324.65 253.064C323.562 251.464 322.058 250.184 320.138 249.224C318.282 248.264 316.234 247.784 313.994 247.784H290.474V269.96Z" fill="black"/>
</svg>
