<svg width="359" height="538" viewBox="0 0 359 538" fill="none" xmlns="http://www.w3.org/2000/svg">
<path d="M0 40C0 17.9086 17.9086 0 40 0H319C341.091 0 359 17.9086 359 40V498C359 520.091 341.091 538 319 538H40C17.9086 538 0 520.091 0 498V40Z" fill="white"/>
<path fill-rule="evenodd" clip-rule="evenodd" d="M0.5 93C51.5863 93 93 51.5863 93 0.5C93 0.33323 92.9996 0.166563 92.9987 0H40C17.9086 0 0 17.9086 0 40V92.9987C0.166563 92.9996 0.33323 93 0.5 93Z" fill="#003C90"/>
<path fill-rule="evenodd" clip-rule="evenodd" d="M358.5 445C307.414 445 266 486.414 266 537.5C266 537.667 266 537.833 266.001 538H319C341.091 538 359 520.091 359 498V445.001C358.833 445 358.667 445 358.5 445Z" fill="#F2B10B"/>
<path fill-rule="evenodd" clip-rule="evenodd" d="M93 537.5C93 486.414 51.5863 445 0.5 445C0.33323 445 0.166563 445 0 445.001L0 498C0 520.091 17.9086 538 40 538H92.9987C92.9996 537.833 93 537.667 93 537.5Z" fill="#005524"/>
<path fill-rule="evenodd" clip-rule="evenodd" d="M266 0.5C266 51.5863 307.414 93 358.5 93C358.667 93 358.833 92.9996 359 92.9987V40C359 17.9086 341.091 0 319 0L266.001 0C266 0.166563 266 0.33323 266 0.5Z" fill="#CE0B21"/>
<path d="M30.816 305L7.008 237.8H18.336L32.16 278.024C32.672 279.304 33.152 280.712 33.6 282.248C34.048 283.784 34.496 285.352 34.944 286.952C35.392 288.488 35.808 289.96 36.192 291.368C36.576 292.776 36.928 294.056 37.248 295.208L33.408 295.112C34.176 292.936 34.912 290.856 35.616 288.872C36.32 286.824 37.024 284.904 37.728 283.112C38.496 281.256 39.232 279.528 39.936 277.928L52.224 249.416H62.016L73.92 277.832C74.688 279.56 75.456 281.384 76.224 283.304C76.992 285.224 77.696 287.112 78.336 288.968C79.04 290.824 79.616 292.584 80.064 294.248L76.512 294.92C76.832 293.64 77.152 292.456 77.472 291.368C77.792 290.216 78.112 289.096 78.432 288.008C78.752 286.856 79.072 285.736 79.392 284.648C79.776 283.496 80.16 282.344 80.544 281.192C80.992 279.976 81.44 278.728 81.888 277.448L96.864 237.8H108L82.08 305H74.88L55.872 260.648L57.408 261.032L38.496 305H30.816ZM130.103 305V294.92H145.751V247.88H130.103V237.8H171.863V247.88H156.119V294.92H171.863V305H130.103ZM202.106 305V237.8H212.474V295.016H253.658V305H202.106ZM280.293 305V237.8H312.165C317.925 237.8 323.045 238.664 327.525 240.392C332.005 242.12 335.781 244.52 338.853 247.592C341.925 250.664 344.229 254.248 345.765 258.344C347.365 262.376 348.165 266.728 348.165 271.4C348.165 276.136 347.365 280.552 345.765 284.648C344.229 288.68 341.925 292.232 338.853 295.304C335.781 298.312 332.005 300.68 327.525 302.408C323.045 304.136 317.925 305 312.165 305H280.293ZM290.661 296.072L290.373 295.016H311.685C316.101 295.016 319.909 294.44 323.109 293.288C326.309 292.072 328.933 290.408 330.981 288.296C333.093 286.184 334.661 283.688 335.685 280.808C336.709 277.928 337.221 274.792 337.221 271.4C337.221 268.072 336.709 265 335.685 262.184C334.661 259.304 333.093 256.808 330.981 254.696C328.933 252.52 326.309 250.824 323.109 249.608C319.909 248.392 316.101 247.784 311.685 247.784H290.085L290.661 246.92V296.072Z" fill="black"/>
</svg>
