<svg width="359" height="538" viewBox="0 0 359 538" fill="none" xmlns="http://www.w3.org/2000/svg">
<path d="M0 40C0 17.9086 17.9086 0 40 0H319C341.091 0 359 17.9086 359 40V498C359 520.091 341.091 538 319 538H40C17.9086 538 0 520.091 0 498V40Z" fill="white"/>
<path fill-rule="evenodd" clip-rule="evenodd" d="M0.5 93C51.5863 93 93 51.5863 93 0.5C93 0.33323 92.9996 0.166563 92.9987 0H40C17.9086 0 0 17.9086 0 40L0 92.9987C0.166563 92.9996 0.33323 93 0.5 93Z" fill="#F2B10B"/>
<path fill-rule="evenodd" clip-rule="evenodd" d="M358.5 445C307.414 445 266 486.414 266 537.5C266 537.667 266 537.833 266.001 538H319C341.091 538 359 520.091 359 498L359 445.001C358.833 445 358.667 445 358.5 445Z" fill="#F2B10B"/>
<path fill-rule="evenodd" clip-rule="evenodd" d="M93 537.5C93 486.414 51.5863 445 0.5 445C0.33323 445 0.166563 445 0 445.001L0 498C0 520.091 17.9086 538 40 538H92.9987C92.9996 537.833 93 537.667 93 537.5Z" fill="#F2B10B"/>
<path fill-rule="evenodd" clip-rule="evenodd" d="M266 0.5C266 51.5863 307.414 93 358.5 93C358.667 93 358.833 92.9996 359 92.9987L359 40C359 17.9086 341.091 0 319 0L266.001 0C266 0.166563 266 0.33323 266 0.5Z" fill="#F2B10B"/>
<path d="M181.352 305.96C175.464 305.96 170.472 304.68 166.376 302.12C162.28 299.496 158.728 296.04 155.72 291.752L163.784 285.704C165.128 287.496 166.632 289.256 168.296 290.984C170.024 292.712 171.976 294.12 174.152 295.208C176.328 296.296 178.76 296.84 181.448 296.84C184.136 296.84 186.76 296.392 189.32 295.496C191.88 294.6 193.992 293.224 195.656 291.368C197.32 289.448 198.152 286.984 198.152 283.976C198.152 281.352 197.448 279.24 196.04 277.64C194.696 275.976 192.936 274.76 190.76 273.992C188.648 273.224 186.472 272.84 184.232 272.84C182.952 272.84 181.736 272.904 180.584 273.032C179.432 273.16 178.344 273.384 177.32 273.704C176.296 273.96 175.304 274.28 174.344 274.664L170.888 267.944L195.08 244.424L194.984 247.4H159.464V237.8H204.872L206.792 243.752L181.352 268.808L178.952 264.2C179.72 263.944 180.872 263.752 182.408 263.624C184.008 263.432 185.48 263.336 186.824 263.336C189.704 263.336 192.392 263.848 194.888 264.872C197.448 265.832 199.72 267.208 201.704 269C203.752 270.792 205.32 272.904 206.408 275.336C207.56 277.768 208.136 280.392 208.136 283.208C208.136 287.752 206.92 291.752 204.488 295.208C202.12 298.6 198.92 301.256 194.888 303.176C190.856 305.032 186.344 305.96 181.352 305.96Z" fill="black"/>
<path d="M42.48 53.4C40.0267 53.4 37.9467 52.8667 36.24 51.8C34.5333 50.7067 33.0533 49.2667 31.8 47.48L35.16 44.96C35.72 45.7067 36.3467 46.44 37.04 47.16C37.76 47.88 38.5733 48.4667 39.48 48.92C40.3867 49.3733 41.4 49.6 42.52 49.6C43.64 49.6 44.7333 49.4133 45.8 49.04C46.8667 48.6667 47.7467 48.0933 48.44 47.32C49.1333 46.52 49.48 45.4933 49.48 44.24C49.48 43.1467 49.1867 42.2667 48.6 41.6C48.04 40.9067 47.3067 40.4 46.4 40.08C45.52 39.76 44.6133 39.6 43.68 39.6C43.1467 39.6 42.64 39.6267 42.16 39.68C41.68 39.7333 41.2267 39.8267 40.8 39.96C40.3733 40.0667 39.96 40.2 39.56 40.36L38.12 37.56L48.2 27.76L48.16 29H33.36V25H52.28L53.08 27.48L42.48 37.92L41.48 36C41.8 35.8933 42.28 35.8133 42.92 35.76C43.5867 35.68 44.2 35.64 44.76 35.64C45.96 35.64 47.08 35.8533 48.12 36.28C49.1867 36.68 50.1333 37.2533 50.96 38C51.8133 38.7467 52.4667 39.6267 52.92 40.64C53.4 41.6533 53.64 42.7467 53.64 43.92C53.64 45.8133 53.1333 47.48 52.12 48.92C51.1333 50.3333 49.8 51.44 48.12 52.24C46.44 53.0133 44.56 53.4 42.48 53.4Z" fill="black"/>
<path d="M320.48 507.4C318.027 507.4 315.947 506.867 314.24 505.8C312.533 504.707 311.053 503.267 309.8 501.48L313.16 498.96C313.72 499.707 314.347 500.44 315.04 501.16C315.76 501.88 316.573 502.467 317.48 502.92C318.387 503.373 319.4 503.6 320.52 503.6C321.64 503.6 322.733 503.413 323.8 503.04C324.867 502.667 325.747 502.093 326.44 501.32C327.133 500.52 327.48 499.493 327.48 498.24C327.48 497.147 327.187 496.267 326.6 495.6C326.04 494.907 325.307 494.4 324.4 494.08C323.52 493.76 322.613 493.6 321.68 493.6C321.147 493.6 320.64 493.627 320.16 493.68C319.68 493.733 319.227 493.827 318.8 493.96C318.373 494.067 317.96 494.2 317.56 494.36L316.12 491.56L326.2 481.76L326.16 483H311.36V479H330.28L331.08 481.48L320.48 491.92L319.48 490C319.8 489.893 320.28 489.813 320.92 489.76C321.587 489.68 322.2 489.64 322.76 489.64C323.96 489.64 325.08 489.853 326.12 490.28C327.187 490.68 328.133 491.253 328.96 492C329.813 492.747 330.467 493.627 330.92 494.64C331.4 495.653 331.64 496.747 331.64 497.92C331.64 499.813 331.133 501.48 330.12 502.92C329.133 504.333 327.8 505.44 326.12 506.24C324.44 507.013 322.56 507.4 320.48 507.4Z" fill="black"/>
<path d="M42.48 507.4C40.0267 507.4 37.9467 506.867 36.24 505.8C34.5333 504.707 33.0533 503.267 31.8 501.48L35.16 498.96C35.72 499.707 36.3467 500.44 37.04 501.16C37.76 501.88 38.5733 502.467 39.48 502.92C40.3867 503.373 41.4 503.6 42.52 503.6C43.64 503.6 44.7333 503.413 45.8 503.04C46.8667 502.667 47.7467 502.093 48.44 501.32C49.1333 500.52 49.48 499.493 49.48 498.24C49.48 497.147 49.1867 496.267 48.6 495.6C48.04 494.907 47.3067 494.4 46.4 494.08C45.52 493.76 44.6133 493.6 43.68 493.6C43.1467 493.6 42.64 493.627 42.16 493.68C41.68 493.733 41.2267 493.827 40.8 493.96C40.3733 494.067 39.96 494.2 39.56 494.36L38.12 491.56L48.2 481.76L48.16 483H33.36V479H52.28L53.08 481.48L42.48 491.92L41.48 490C41.8 489.893 42.28 489.813 42.92 489.76C43.5867 489.68 44.2 489.64 44.76 489.64C45.96 489.64 47.08 489.853 48.12 490.28C49.1867 490.68 50.1333 491.253 50.96 492C51.8133 492.747 52.4667 493.627 52.92 494.64C53.4 495.653 53.64 496.747 53.64 497.92C53.64 499.813 53.1333 501.48 52.12 502.92C51.1333 504.333 49.8 505.44 48.12 506.24C46.44 507.013 44.56 507.4 42.48 507.4Z" fill="black"/>
<path d="M320.48 53.4C318.027 53.4 315.947 52.8667 314.24 51.8C312.533 50.7067 311.053 49.2667 309.8 47.48L313.16 44.96C313.72 45.7067 314.347 46.44 315.04 47.16C315.76 47.88 316.573 48.4667 317.48 48.92C318.387 49.3733 319.4 49.6 320.52 49.6C321.64 49.6 322.733 49.4133 323.8 49.04C324.867 48.6667 325.747 48.0933 326.44 47.32C327.133 46.52 327.48 45.4933 327.48 44.24C327.48 43.1467 327.187 42.2667 326.6 41.6C326.04 40.9067 325.307 40.4 324.4 40.08C323.52 39.76 322.613 39.6 321.68 39.6C321.147 39.6 320.64 39.6267 320.16 39.68C319.68 39.7333 319.227 39.8267 318.8 39.96C318.373 40.0667 317.96 40.2 317.56 40.36L316.12 37.56L326.2 27.76L326.16 29H311.36V25H330.28L331.08 27.48L320.48 37.92L319.48 36C319.8 35.8933 320.28 35.8133 320.92 35.76C321.587 35.68 322.2 35.64 322.76 35.64C323.96 35.64 325.08 35.8533 326.12 36.28C327.187 36.68 328.133 37.2533 328.96 38C329.813 38.7467 330.467 39.6267 330.92 40.64C331.4 41.6533 331.64 42.7467 331.64 43.92C331.64 45.8133 331.133 47.48 330.12 48.92C329.133 50.3333 327.8 51.44 326.12 52.24C324.44 53.0133 322.56 53.4 320.48 53.4Z" fill="black"/>
</svg>
