<svg width="359" height="538" viewBox="0 0 359 538" fill="none" xmlns="http://www.w3.org/2000/svg">
<path d="M0 40C0 17.9086 17.9086 0 40 0H319C341.091 0 359 17.9086 359 40V498C359 520.091 341.091 538 319 538H40C17.9086 538 0 520.091 0 498V40Z" fill="white"/>
<path fill-rule="evenodd" clip-rule="evenodd" d="M0.5 93C51.5863 93 93 51.5863 93 0.5C93 0.33323 92.9996 0.166563 92.9987 0H40C17.9086 0 0 17.9086 0 40V92.9987C0.166563 92.9996 0.33323 93 0.5 93Z" fill="#F2B10B"/>
<path fill-rule="evenodd" clip-rule="evenodd" d="M358.5 445C307.414 445 266 486.414 266 537.5C266 537.667 266 537.833 266.001 538H319C341.091 538 359 520.091 359 498V445.001C358.833 445 358.667 445 358.5 445Z" fill="#F2B10B"/>
<path fill-rule="evenodd" clip-rule="evenodd" d="M93 537.5C93 486.414 51.5863 445 0.5 445C0.33323 445 0.166563 445 0 445.001L0 498C0 520.091 17.9086 538 40 538H92.9987C92.9996 537.833 93 537.667 93 537.5Z" fill="#F2B10B"/>
<path fill-rule="evenodd" clip-rule="evenodd" d="M266 0.5C266 51.5863 307.414 93 358.5 93C358.667 93 358.833 92.9996 359 92.9987V40C359 17.9086 341.091 0 319 0L266.001 0C266 0.166563 266 0.33323 266 0.5Z" fill="#F2B10B"/>
<path d="M184.808 305.288C179.816 305.288 175.336 304.392 171.368 302.6C167.464 300.744 164.36 298.28 162.056 295.208C159.816 292.072 158.696 288.648 158.696 284.936C158.696 282.632 159.048 280.616 159.752 278.888C160.456 277.096 161.416 275.56 162.632 274.28C163.848 272.936 165.224 271.752 166.76 270.728C168.36 269.704 169.992 268.808 171.656 268.04L171.08 271.4C169.8 270.824 168.552 270.088 167.336 269.192C166.184 268.296 165.16 267.208 164.264 265.928C163.368 264.648 162.632 263.24 162.056 261.704C161.544 260.104 161.288 258.376 161.288 256.52C161.288 253.064 162.344 249.928 164.456 247.112C166.568 244.296 169.384 242.056 172.904 240.392C176.488 238.664 180.456 237.8 184.808 237.8C189.224 237.8 193.192 238.664 196.712 240.392C200.296 242.056 203.112 244.296 205.16 247.112C207.208 249.928 208.232 253.064 208.232 256.52C208.232 258.504 207.944 260.296 207.368 261.896C206.856 263.496 206.12 264.904 205.16 266.12C204.264 267.336 203.208 268.392 201.992 269.288C200.84 270.184 199.656 270.888 198.44 271.4L198.152 268.424C200.072 269.192 201.8 270.152 203.336 271.304C204.936 272.392 206.312 273.672 207.464 275.144C208.616 276.552 209.48 278.088 210.056 279.752C210.696 281.352 211.016 283.08 211.016 284.936C211.016 288.648 209.896 292.072 207.656 295.208C205.416 298.28 202.312 300.744 198.344 302.6C194.44 304.392 189.928 305.288 184.808 305.288ZM184.808 295.688C187.88 295.688 190.632 295.24 193.064 294.344C195.496 293.384 197.416 292.104 198.824 290.504C200.232 288.84 200.936 286.984 200.936 284.936C200.936 282.824 200.232 281 198.824 279.464C197.416 277.864 195.464 276.616 192.968 275.72C190.536 274.824 187.816 274.376 184.808 274.376C181.864 274.376 179.144 274.824 176.648 275.72C174.216 276.616 172.264 277.864 170.792 279.464C169.384 281 168.68 282.824 168.68 284.936C168.68 286.92 169.384 288.744 170.792 290.408C172.2 292.008 174.12 293.288 176.552 294.248C178.984 295.208 181.736 295.688 184.808 295.688ZM184.808 265.64C187.304 265.64 189.544 265.224 191.528 264.392C193.576 263.56 195.176 262.44 196.328 261.032C197.544 259.624 198.152 257.96 198.152 256.04C198.152 254.44 197.576 253 196.424 251.72C195.272 250.376 193.672 249.32 191.624 248.552C189.64 247.784 187.368 247.4 184.808 247.4C182.248 247.4 179.944 247.784 177.896 248.552C175.848 249.32 174.248 250.376 173.096 251.72C171.944 253 171.368 254.44 171.368 256.04C171.368 257.96 171.944 259.624 173.096 261.032C174.312 262.44 175.944 263.56 177.992 264.392C180.04 265.224 182.312 265.64 184.808 265.64Z" fill="black"/>
<path d="M43.92 53.12C41.84 53.12 39.9733 52.7467 38.32 52C36.6933 51.2267 35.4 50.2 34.44 48.92C33.5067 47.6133 33.04 46.1867 33.04 44.64C33.04 43.68 33.1867 42.84 33.48 42.12C33.7733 41.3733 34.1733 40.7333 34.68 40.2C35.1867 39.64 35.76 39.1467 36.4 38.72C37.0667 38.2933 37.7467 37.92 38.44 37.6L38.2 39C37.6667 38.76 37.1467 38.4533 36.64 38.08C36.16 37.7067 35.7333 37.2533 35.36 36.72C34.9867 36.1867 34.68 35.6 34.44 34.96C34.2267 34.2933 34.12 33.5733 34.12 32.8C34.12 31.36 34.56 30.0533 35.44 28.88C36.32 27.7067 37.4933 26.7733 38.96 26.08C40.4533 25.36 42.1067 25 43.92 25C45.76 25 47.4133 25.36 48.88 26.08C50.3733 26.7733 51.5467 27.7067 52.4 28.88C53.2533 30.0533 53.68 31.36 53.68 32.8C53.68 33.6267 53.56 34.3733 53.32 35.04C53.1067 35.7067 52.8 36.2933 52.4 36.8C52.0267 37.3067 51.5867 37.7467 51.08 38.12C50.6 38.4933 50.1067 38.7867 49.6 39L49.48 37.76C50.28 38.08 51 38.48 51.64 38.96C52.3067 39.4133 52.88 39.9467 53.36 40.56C53.84 41.1467 54.2 41.7867 54.44 42.48C54.7067 43.1467 54.84 43.8667 54.84 44.64C54.84 46.1867 54.3733 47.6133 53.44 48.92C52.5067 50.2 51.2133 51.2267 49.56 52C47.9333 52.7467 46.0533 53.12 43.92 53.12ZM43.92 49.12C45.2 49.12 46.3467 48.9333 47.36 48.56C48.3733 48.16 49.1733 47.6267 49.76 46.96C50.3467 46.2667 50.64 45.4933 50.64 44.64C50.64 43.76 50.3467 43 49.76 42.36C49.1733 41.6933 48.36 41.1733 47.32 40.8C46.3067 40.4267 45.1733 40.24 43.92 40.24C42.6933 40.24 41.56 40.4267 40.52 40.8C39.5067 41.1733 38.6933 41.6933 38.08 42.36C37.4933 43 37.2 43.76 37.2 44.64C37.2 45.4667 37.4933 46.2267 38.08 46.92C38.6667 47.5867 39.4667 48.12 40.48 48.52C41.4933 48.92 42.64 49.12 43.92 49.12ZM43.92 36.6C44.96 36.6 45.8933 36.4267 46.72 36.08C47.5733 35.7333 48.24 35.2667 48.72 34.68C49.2267 34.0933 49.48 33.4 49.48 32.6C49.48 31.9333 49.24 31.3333 48.76 30.8C48.28 30.24 47.6133 29.8 46.76 29.48C45.9333 29.16 44.9867 29 43.92 29C42.8533 29 41.8933 29.16 41.04 29.48C40.1867 29.8 39.52 30.24 39.04 30.8C38.56 31.3333 38.32 31.9333 38.32 32.6C38.32 33.4 38.56 34.0933 39.04 34.68C39.5467 35.2667 40.2267 35.7333 41.08 36.08C41.9333 36.4267 42.88 36.6 43.92 36.6Z" fill="black"/>
<path d="M321.92 507.12C319.84 507.12 317.973 506.747 316.32 506C314.693 505.227 313.4 504.2 312.44 502.92C311.507 501.613 311.04 500.187 311.04 498.64C311.04 497.68 311.187 496.84 311.48 496.12C311.773 495.373 312.173 494.733 312.68 494.2C313.187 493.64 313.76 493.147 314.4 492.72C315.067 492.293 315.747 491.92 316.44 491.6L316.2 493C315.667 492.76 315.147 492.453 314.64 492.08C314.16 491.707 313.733 491.253 313.36 490.72C312.987 490.187 312.68 489.6 312.44 488.96C312.227 488.293 312.12 487.573 312.12 486.8C312.12 485.36 312.56 484.053 313.44 482.88C314.32 481.707 315.493 480.773 316.96 480.08C318.453 479.36 320.107 479 321.92 479C323.76 479 325.413 479.36 326.88 480.08C328.373 480.773 329.547 481.707 330.4 482.88C331.253 484.053 331.68 485.36 331.68 486.8C331.68 487.627 331.56 488.373 331.32 489.04C331.107 489.707 330.8 490.293 330.4 490.8C330.027 491.307 329.587 491.747 329.08 492.12C328.6 492.493 328.107 492.787 327.6 493L327.48 491.76C328.28 492.08 329 492.48 329.64 492.96C330.307 493.413 330.88 493.947 331.36 494.56C331.84 495.147 332.2 495.787 332.44 496.48C332.707 497.147 332.84 497.867 332.84 498.64C332.84 500.187 332.373 501.613 331.44 502.92C330.507 504.2 329.213 505.227 327.56 506C325.933 506.747 324.053 507.12 321.92 507.12ZM321.92 503.12C323.2 503.12 324.347 502.933 325.36 502.56C326.373 502.16 327.173 501.627 327.76 500.96C328.347 500.267 328.64 499.493 328.64 498.64C328.64 497.76 328.347 497 327.76 496.36C327.173 495.693 326.36 495.173 325.32 494.8C324.307 494.427 323.173 494.24 321.92 494.24C320.693 494.24 319.56 494.427 318.52 494.8C317.507 495.173 316.693 495.693 316.08 496.36C315.493 497 315.2 497.76 315.2 498.64C315.2 499.467 315.493 500.227 316.08 500.92C316.667 501.587 317.467 502.12 318.48 502.52C319.493 502.92 320.64 503.12 321.92 503.12ZM321.92 490.6C322.96 490.6 323.893 490.427 324.72 490.08C325.573 489.733 326.24 489.267 326.72 488.68C327.227 488.093 327.48 487.4 327.48 486.6C327.48 485.933 327.24 485.333 326.76 484.8C326.28 484.24 325.613 483.8 324.76 483.48C323.933 483.16 322.987 483 321.92 483C320.853 483 319.893 483.16 319.04 483.48C318.187 483.8 317.52 484.24 317.04 484.8C316.56 485.333 316.32 485.933 316.32 486.6C316.32 487.4 316.56 488.093 317.04 488.68C317.547 489.267 318.227 489.733 319.08 490.08C319.933 490.427 320.88 490.6 321.92 490.6Z" fill="black"/>
<path d="M43.92 507.12C41.84 507.12 39.9733 506.747 38.32 506C36.6933 505.227 35.4 504.2 34.44 502.92C33.5067 501.613 33.04 500.187 33.04 498.64C33.04 497.68 33.1867 496.84 33.48 496.12C33.7733 495.373 34.1733 494.733 34.68 494.2C35.1867 493.64 35.76 493.147 36.4 492.72C37.0667 492.293 37.7467 491.92 38.44 491.6L38.2 493C37.6667 492.76 37.1467 492.453 36.64 492.08C36.16 491.707 35.7333 491.253 35.36 490.72C34.9867 490.187 34.68 489.6 34.44 488.96C34.2267 488.293 34.12 487.573 34.12 486.8C34.12 485.36 34.56 484.053 35.44 482.88C36.32 481.707 37.4933 480.773 38.96 480.08C40.4533 479.36 42.1067 479 43.92 479C45.76 479 47.4133 479.36 48.88 480.08C50.3733 480.773 51.5467 481.707 52.4 482.88C53.2533 484.053 53.68 485.36 53.68 486.8C53.68 487.627 53.56 488.373 53.32 489.04C53.1067 489.707 52.8 490.293 52.4 490.8C52.0267 491.307 51.5867 491.747 51.08 492.12C50.6 492.493 50.1067 492.787 49.6 493L49.48 491.76C50.28 492.08 51 492.48 51.64 492.96C52.3067 493.413 52.88 493.947 53.36 494.56C53.84 495.147 54.2 495.787 54.44 496.48C54.7067 497.147 54.84 497.867 54.84 498.64C54.84 500.187 54.3733 501.613 53.44 502.92C52.5067 504.2 51.2133 505.227 49.56 506C47.9333 506.747 46.0533 507.12 43.92 507.12ZM43.92 503.12C45.2 503.12 46.3467 502.933 47.36 502.56C48.3733 502.16 49.1733 501.627 49.76 500.96C50.3467 500.267 50.64 499.493 50.64 498.64C50.64 497.76 50.3467 497 49.76 496.36C49.1733 495.693 48.36 495.173 47.32 494.8C46.3067 494.427 45.1733 494.24 43.92 494.24C42.6933 494.24 41.56 494.427 40.52 494.8C39.5067 495.173 38.6933 495.693 38.08 496.36C37.4933 497 37.2 497.76 37.2 498.64C37.2 499.467 37.4933 500.227 38.08 500.92C38.6667 501.587 39.4667 502.12 40.48 502.52C41.4933 502.92 42.64 503.12 43.92 503.12ZM43.92 490.6C44.96 490.6 45.8933 490.427 46.72 490.08C47.5733 489.733 48.24 489.267 48.72 488.68C49.2267 488.093 49.48 487.4 49.48 486.6C49.48 485.933 49.24 485.333 48.76 484.8C48.28 484.24 47.6133 483.8 46.76 483.48C45.9333 483.16 44.9867 483 43.92 483C42.8533 483 41.8933 483.16 41.04 483.48C40.1867 483.8 39.52 484.24 39.04 484.8C38.56 485.333 38.32 485.933 38.32 486.6C38.32 487.4 38.56 488.093 39.04 488.68C39.5467 489.267 40.2267 489.733 41.08 490.08C41.9333 490.427 42.88 490.6 43.92 490.6Z" fill="black"/>
<path d="M321.92 53.12C319.84 53.12 317.973 52.7467 316.32 52C314.693 51.2267 313.4 50.2 312.44 48.92C311.507 47.6133 311.04 46.1867 311.04 44.64C311.04 43.68 311.187 42.84 311.48 42.12C311.773 41.3733 312.173 40.7333 312.68 40.2C313.187 39.64 313.76 39.1467 314.4 38.72C315.067 38.2933 315.747 37.92 316.44 37.6L316.2 39C315.667 38.76 315.147 38.4533 314.64 38.08C314.16 37.7067 313.733 37.2533 313.36 36.72C312.987 36.1867 312.68 35.6 312.44 34.96C312.227 34.2933 312.12 33.5733 312.12 32.8C312.12 31.36 312.56 30.0533 313.44 28.88C314.32 27.7067 315.493 26.7733 316.96 26.08C318.453 25.36 320.107 25 321.92 25C323.76 25 325.413 25.36 326.88 26.08C328.373 26.7733 329.547 27.7067 330.4 28.88C331.253 30.0533 331.68 31.36 331.68 32.8C331.68 33.6267 331.56 34.3733 331.32 35.04C331.107 35.7067 330.8 36.2933 330.4 36.8C330.027 37.3067 329.587 37.7467 329.08 38.12C328.6 38.4933 328.107 38.7867 327.6 39L327.48 37.76C328.28 38.08 329 38.48 329.64 38.96C330.307 39.4133 330.88 39.9467 331.36 40.56C331.84 41.1467 332.2 41.7867 332.44 42.48C332.707 43.1467 332.84 43.8667 332.84 44.64C332.84 46.1867 332.373 47.6133 331.44 48.92C330.507 50.2 329.213 51.2267 327.56 52C325.933 52.7467 324.053 53.12 321.92 53.12ZM321.92 49.12C323.2 49.12 324.347 48.9333 325.36 48.56C326.373 48.16 327.173 47.6267 327.76 46.96C328.347 46.2667 328.64 45.4933 328.64 44.64C328.64 43.76 328.347 43 327.76 42.36C327.173 41.6933 326.36 41.1733 325.32 40.8C324.307 40.4267 323.173 40.24 321.92 40.24C320.693 40.24 319.56 40.4267 318.52 40.8C317.507 41.1733 316.693 41.6933 316.08 42.36C315.493 43 315.2 43.76 315.2 44.64C315.2 45.4667 315.493 46.2267 316.08 46.92C316.667 47.5867 317.467 48.12 318.48 48.52C319.493 48.92 320.64 49.12 321.92 49.12ZM321.92 36.6C322.96 36.6 323.893 36.4267 324.72 36.08C325.573 35.7333 326.24 35.2667 326.72 34.68C327.227 34.0933 327.48 33.4 327.48 32.6C327.48 31.9333 327.24 31.3333 326.76 30.8C326.28 30.24 325.613 29.8 324.76 29.48C323.933 29.16 322.987 29 321.92 29C320.853 29 319.893 29.16 319.04 29.48C318.187 29.8 317.52 30.24 317.04 30.8C316.56 31.3333 316.32 31.9333 316.32 32.6C316.32 33.4 316.56 34.0933 317.04 34.68C317.547 35.2667 318.227 35.7333 319.08 36.08C319.933 36.4267 320.88 36.6 321.92 36.6Z" fill="black"/>
</svg>
