<svg width="359" height="538" viewBox="0 0 359 538" fill="none" xmlns="http://www.w3.org/2000/svg">
<path d="M0 40C0 17.9086 17.9086 0 40 0H319C341.091 0 359 17.9086 359 40V498C359 520.091 341.091 538 319 538H40C17.9086 538 0 520.091 0 498V40Z" fill="white"/>
<path fill-rule="evenodd" clip-rule="evenodd" d="M0.5 93C51.5863 93 93 51.5863 93 0.5C93 0.33323 92.9996 0.166563 92.9987 0H40C17.9086 0 0 17.9086 0 40V92.9987C0.166563 92.9996 0.33323 93 0.5 93Z" fill="#F2B10B"/>
<path fill-rule="evenodd" clip-rule="evenodd" d="M358.5 445C307.414 445 266 486.414 266 537.5C266 537.667 266 537.833 266.001 538H319C341.091 538 359 520.091 359 498V445.001C358.833 445 358.667 445 358.5 445Z" fill="#F2B10B"/>
<path fill-rule="evenodd" clip-rule="evenodd" d="M93 537.5C93 486.414 51.5863 445 0.5 445C0.33323 445 0.166563 445 0 445.001L0 498C0 520.091 17.9086 538 40 538H92.9987C92.9996 537.833 93 537.667 93 537.5Z" fill="#F2B10B"/>
<path fill-rule="evenodd" clip-rule="evenodd" d="M266 0.5C266 51.5863 307.414 93 358.5 93C358.667 93 358.833 92.9996 359 92.9987V40C359 17.9086 341.091 0 319 0L266.001 0C266 0.166563 266 0.33323 266 0.5Z" fill="#F2B10B"/>
<path d="M176.264 300.296V245.768L180.008 246.632L164.456 255.08L161 246.44L178.568 236.84H186.728V300.296H176.264ZM162.824 305V295.016H198.344V305H162.824Z" fill="black"/>
<path d="M40.36 51.04V28.32L41.92 28.68L35.44 32.2L34 28.6L41.32 24.6H44.72V51.04H40.36ZM34.76 53V48.84H49.56V53H34.76Z" fill="black"/>
<path d="M318.36 505.04V482.32L319.92 482.68L313.44 486.2L312 482.6L319.32 478.6H322.72V505.04H318.36ZM312.76 507V502.84H327.56V507H312.76Z" fill="black"/>
<path d="M40.36 505.04V482.32L41.92 482.68L35.44 486.2L34 482.6L41.32 478.6H44.72V505.04H40.36ZM34.76 507V502.84H49.56V507H34.76Z" fill="black"/>
<path d="M318.36 51.04V28.32L319.92 28.68L313.44 32.2L312 28.6L319.32 24.6H322.72V51.04H318.36ZM312.76 53V48.84H327.56V53H312.76Z" fill="black"/>
<path d="M0 40C0 17.9086 17.9086 0 40 0H319C341.091 0 359 17.9086 359 40V498C359 520.091 341.091 538 319 538H40C17.9086 538 0 520.091 0 498V40Z" fill="white"/>
<path fill-rule="evenodd" clip-rule="evenodd" d="M0.5 93C51.5863 93 93 51.5863 93 0.5C93 0.33323 92.9996 0.166563 92.9987 0H40C17.9086 0 0 17.9086 0 40V92.9987C0.166563 92.9996 0.33323 93 0.5 93Z" fill="#F2B10B"/>
<path fill-rule="evenodd" clip-rule="evenodd" d="M358.5 445C307.414 445 266 486.414 266 537.5C266 537.667 266 537.833 266.001 538H319C341.091 538 359 520.091 359 498V445.001C358.833 445 358.667 445 358.5 445Z" fill="#F2B10B"/>
<path fill-rule="evenodd" clip-rule="evenodd" d="M93 537.5C93 486.414 51.5863 445 0.5 445C0.33323 445 0.166563 445 0 445.001L0 498C0 520.091 17.9086 538 40 538H92.9987C92.9996 537.833 93 537.667 93 537.5Z" fill="#F2B10B"/>
<path fill-rule="evenodd" clip-rule="evenodd" d="M266 0.5C266 51.5863 307.414 93 358.5 93C358.667 93 358.833 92.9996 359 92.9987V40C359 17.9086 341.091 0 319 0L266.001 0C266 0.166563 266 0.33323 266 0.5Z" fill="#F2B10B"/>
<path d="M176.264 300.296V245.768L180.008 246.632L164.456 255.08L161 246.44L178.568 236.84H186.728V300.296H176.264ZM162.824 305V295.016H198.344V305H162.824Z" fill="black"/>
<path d="M40.36 51.04V28.32L41.92 28.68L35.44 32.2L34 28.6L41.32 24.6H44.72V51.04H40.36ZM34.76 53V48.84H49.56V53H34.76Z" fill="black"/>
<path d="M318.36 505.04V482.32L319.92 482.68L313.44 486.2L312 482.6L319.32 478.6H322.72V505.04H318.36ZM312.76 507V502.84H327.56V507H312.76Z" fill="black"/>
<path d="M40.36 505.04V482.32L41.92 482.68L35.44 486.2L34 482.6L41.32 478.6H44.72V505.04H40.36ZM34.76 507V502.84H49.56V507H34.76Z" fill="black"/>
<path d="M318.36 51.04V28.32L319.92 28.68L313.44 32.2L312 28.6L319.32 24.6H322.72V51.04H318.36ZM312.76 53V48.84H327.56V53H312.76Z" fill="black"/>
</svg>
