<svg width="359" height="538" viewBox="0 0 359 538" fill="none" xmlns="http://www.w3.org/2000/svg">
<path d="M0 40C0 17.9086 17.9086 0 40 0H319C341.091 0 359 17.9086 359 40V498C359 520.091 341.091 538 319 538H40C17.9086 538 0 520.091 0 498V40Z" fill="white"/>
<path fill-rule="evenodd" clip-rule="evenodd" d="M0.5 93C51.5863 93 93 51.5863 93 0.5C93 0.33323 92.9996 0.166563 92.9987 0H40C17.9086 0 0 17.9086 0 40V92.9987C0.166563 92.9996 0.33323 93 0.5 93Z" fill="#F2B10B"/>
<path fill-rule="evenodd" clip-rule="evenodd" d="M358.5 445C307.414 445 266 486.414 266 537.5C266 537.667 266 537.833 266.001 538H319C341.091 538 359 520.091 359 498V445.001C358.833 445 358.667 445 358.5 445Z" fill="#F2B10B"/>
<path fill-rule="evenodd" clip-rule="evenodd" d="M93 537.5C93 486.414 51.5863 445 0.5 445C0.33323 445 0.166563 445 0 445.001L0 498C0 520.091 17.9086 538 40 538H92.9987C92.9996 537.833 93 537.667 93 537.5Z" fill="#F2B10B"/>
<path fill-rule="evenodd" clip-rule="evenodd" d="M266 0.5C266 51.5863 307.414 93 358.5 93C358.667 93 358.833 92.9996 359 92.9987V40C359 17.9086 341.091 0 319 0L266.001 0C266 0.166563 266 0.33323 266 0.5Z" fill="#F2B10B"/>
<path d="M140.264 300.296V245.768L144.008 246.632L128.456 255.08L125 246.44L142.568 236.84H150.728V300.296H140.264ZM126.824 305V295.016H162.344V305H126.824ZM209.21 305.96C203.066 305.96 197.85 304.488 193.562 301.544C189.274 298.6 186.01 294.536 183.77 289.352C181.53 284.168 180.41 278.184 180.41 271.4C180.41 264.616 181.53 258.632 183.77 253.448C186.01 248.264 189.274 244.2 193.562 241.256C197.85 238.312 203.066 236.84 209.21 236.84C215.226 236.84 220.346 238.312 224.57 241.256C228.794 244.2 231.994 248.264 234.17 253.448C236.346 258.632 237.434 264.616 237.434 271.4C237.434 278.184 236.346 284.168 234.17 289.352C231.994 294.536 228.794 298.6 224.57 301.544C220.346 304.488 215.226 305.96 209.21 305.96ZM209.21 296.552C214.97 296.552 219.418 294.376 222.554 290.024C225.754 285.608 227.354 279.4 227.354 271.4C227.354 263.4 225.754 257.224 222.554 252.872C219.418 248.456 214.97 246.248 209.21 246.248C203.322 246.248 198.714 248.456 195.386 252.872C192.058 257.224 190.394 263.4 190.394 271.4C190.394 279.4 192.058 285.608 195.386 290.024C198.714 294.376 203.322 296.552 209.21 296.552Z" fill="black"/>
<path d="M27.36 51.04V28.32L28.92 28.68L22.44 32.2L21 28.6L28.32 24.6H31.72V51.04H27.36ZM21.76 53V48.84H36.56V53H21.76ZM56.0875 53.4C53.5275 53.4 51.3542 52.7867 49.5675 51.56C47.7808 50.3333 46.4208 48.64 45.4875 46.48C44.5542 44.32 44.0875 41.8267 44.0875 39C44.0875 36.1733 44.5542 33.68 45.4875 31.52C46.4208 29.36 47.7808 27.6667 49.5675 26.44C51.3542 25.2133 53.5275 24.6 56.0875 24.6C58.5942 24.6 60.7275 25.2133 62.4875 26.44C64.2475 27.6667 65.5808 29.36 66.4875 31.52C67.3942 33.68 67.8475 36.1733 67.8475 39C67.8475 41.8267 67.3942 44.32 66.4875 46.48C65.5808 48.64 64.2475 50.3333 62.4875 51.56C60.7275 52.7867 58.5942 53.4 56.0875 53.4ZM56.0875 49.48C58.4875 49.48 60.3408 48.5733 61.6475 46.76C62.9808 44.92 63.6475 42.3333 63.6475 39C63.6475 35.6667 62.9808 33.0933 61.6475 31.28C60.3408 29.44 58.4875 28.52 56.0875 28.52C53.6342 28.52 51.7142 29.44 50.3275 31.28C48.9408 33.0933 48.2475 35.6667 48.2475 39C48.2475 42.3333 48.9408 44.92 50.3275 46.76C51.7142 48.5733 53.6342 49.48 56.0875 49.48Z" fill="black"/>
<path d="M305.36 505.04V482.32L306.92 482.68L300.44 486.2L299 482.6L306.32 478.6H309.72V505.04H305.36ZM299.76 507V502.84H314.56V507H299.76ZM334.088 507.4C331.528 507.4 329.354 506.787 327.568 505.56C325.781 504.333 324.421 502.64 323.488 500.48C322.554 498.32 322.088 495.827 322.088 493C322.088 490.173 322.554 487.68 323.488 485.52C324.421 483.36 325.781 481.667 327.568 480.44C329.354 479.213 331.528 478.6 334.088 478.6C336.594 478.6 338.728 479.213 340.488 480.44C342.248 481.667 343.581 483.36 344.488 485.52C345.394 487.68 345.848 490.173 345.848 493C345.848 495.827 345.394 498.32 344.488 500.48C343.581 502.64 342.248 504.333 340.488 505.56C338.728 506.787 336.594 507.4 334.088 507.4ZM334.088 503.48C336.488 503.48 338.341 502.573 339.648 500.76C340.981 498.92 341.648 496.333 341.648 493C341.648 489.667 340.981 487.093 339.648 485.28C338.341 483.44 336.488 482.52 334.088 482.52C331.634 482.52 329.714 483.44 328.328 485.28C326.941 487.093 326.248 489.667 326.248 493C326.248 496.333 326.941 498.92 328.328 500.76C329.714 502.573 331.634 503.48 334.088 503.48Z" fill="black"/>
<path d="M27.36 505.04V482.32L28.92 482.68L22.44 486.2L21 482.6L28.32 478.6H31.72V505.04H27.36ZM21.76 507V502.84H36.56V507H21.76ZM56.0875 507.4C53.5275 507.4 51.3542 506.787 49.5675 505.56C47.7808 504.333 46.4208 502.64 45.4875 500.48C44.5542 498.32 44.0875 495.827 44.0875 493C44.0875 490.173 44.5542 487.68 45.4875 485.52C46.4208 483.36 47.7808 481.667 49.5675 480.44C51.3542 479.213 53.5275 478.6 56.0875 478.6C58.5942 478.6 60.7275 479.213 62.4875 480.44C64.2475 481.667 65.5808 483.36 66.4875 485.52C67.3942 487.68 67.8475 490.173 67.8475 493C67.8475 495.827 67.3942 498.32 66.4875 500.48C65.5808 502.64 64.2475 504.333 62.4875 505.56C60.7275 506.787 58.5942 507.4 56.0875 507.4ZM56.0875 503.48C58.4875 503.48 60.3408 502.573 61.6475 500.76C62.9808 498.92 63.6475 496.333 63.6475 493C63.6475 489.667 62.9808 487.093 61.6475 485.28C60.3408 483.44 58.4875 482.52 56.0875 482.52C53.6342 482.52 51.7142 483.44 50.3275 485.28C48.9408 487.093 48.2475 489.667 48.2475 493C48.2475 496.333 48.9408 498.92 50.3275 500.76C51.7142 502.573 53.6342 503.48 56.0875 503.48Z" fill="black"/>
<path d="M305.36 51.04V28.32L306.92 28.68L300.44 32.2L299 28.6L306.32 24.6H309.72V51.04H305.36ZM299.76 53V48.84H314.56V53H299.76ZM334.088 53.4C331.528 53.4 329.354 52.7867 327.568 51.56C325.781 50.3333 324.421 48.64 323.488 46.48C322.554 44.32 322.088 41.8267 322.088 39C322.088 36.1733 322.554 33.68 323.488 31.52C324.421 29.36 325.781 27.6667 327.568 26.44C329.354 25.2133 331.528 24.6 334.088 24.6C336.594 24.6 338.728 25.2133 340.488 26.44C342.248 27.6667 343.581 29.36 344.488 31.52C345.394 33.68 345.848 36.1733 345.848 39C345.848 41.8267 345.394 44.32 344.488 46.48C343.581 48.64 342.248 50.3333 340.488 51.56C338.728 52.7867 336.594 53.4 334.088 53.4ZM334.088 49.48C336.488 49.48 338.341 48.5733 339.648 46.76C340.981 44.92 341.648 42.3333 341.648 39C341.648 35.6667 340.981 33.0933 339.648 31.28C338.341 29.44 336.488 28.52 334.088 28.52C331.634 28.52 329.714 29.44 328.328 31.28C326.941 33.0933 326.248 35.6667 326.248 39C326.248 42.3333 326.941 44.92 328.328 46.76C329.714 48.5733 331.634 49.48 334.088 49.48Z" fill="black"/>
</svg>
