<svg width="359" height="538" viewBox="0 0 359 538" fill="none" xmlns="http://www.w3.org/2000/svg">
<path d="M0 40C0 17.9086 17.9086 0 40 0H319C341.091 0 359 17.9086 359 40V498C359 520.091 341.091 538 319 538H40C17.9086 538 0 520.091 0 498V40Z" fill="white"/>
<path fill-rule="evenodd" clip-rule="evenodd" d="M0.5 93C51.5863 93 93 51.5863 93 0.5C93 0.33323 92.9996 0.166563 92.9987 0H40C17.9086 0 0 17.9086 0 40L0 92.9987C0.166563 92.9996 0.33323 93 0.5 93Z" fill="#F2B10B"/>
<path fill-rule="evenodd" clip-rule="evenodd" d="M358.5 445C307.414 445 266 486.414 266 537.5C266 537.667 266 537.833 266.001 538H319C341.091 538 359 520.091 359 498L359 445.001C358.833 445 358.667 445 358.5 445Z" fill="#F2B10B"/>
<path fill-rule="evenodd" clip-rule="evenodd" d="M93 537.5C93 486.414 51.5863 445 0.5 445C0.33323 445 0.166563 445 0 445.001L0 498C0 520.091 17.9086 538 40 538H92.9987C92.9996 537.833 93 537.667 93 537.5Z" fill="#F2B10B"/>
<path fill-rule="evenodd" clip-rule="evenodd" d="M266 0.5C266 51.5863 307.414 93 358.5 93C358.667 93 358.833 92.9996 359 92.9987L359 40C359 17.9086 341.091 0 319 0L266.001 0C266 0.166563 266 0.33323 266 0.5Z" fill="#F2B10B"/>
<path d="M189.704 305V244.808L194.984 245L163.304 281.288L163.208 277.256H214.184V286.76H159.08L154.664 278.12L190.376 237.8H199.688V305H189.704Z" fill="black"/>
<path d="M45.96 53V27.92L48.16 28L34.96 43.12L34.92 41.44H56.16V45.4H33.2L31.36 41.8L46.24 25H50.12V53H45.96Z" fill="black"/>
<path d="M323.96 507V481.92L326.16 482L312.96 497.12L312.92 495.44H334.16V499.4H311.2L309.36 495.8L324.24 479H328.12V507H323.96Z" fill="black"/>
<path d="M45.96 507V481.92L48.16 482L34.96 497.12L34.92 495.44H56.16V499.4H33.2L31.36 495.8L46.24 479H50.12V507H45.96Z" fill="black"/>
<path d="M323.96 53V27.92L326.16 28L312.96 43.12L312.92 41.44H334.16V45.4H311.2L309.36 41.8L324.24 25H328.12V53H323.96Z" fill="black"/>
</svg>
